<?xml version="1.0" encoding="utf-8"?>
<!-- Generator: Adobe Illustrator 25.2.1, SVG Export Plug-In . SVG Version: 6.00 Build 0)  -->
<svg version="1.1" id="Layer_1" xmlns="http://www.w3.org/2000/svg" xmlns:xlink="http://www.w3.org/1999/xlink" x="0px" y="0px"
	 viewBox="0 0 1009 1000" style="enable-background:new 0 0 1009 1000;" xml:space="preserve">
<style type="text/css">
	.st0{fill:none;}
	.st1{fill:#707070;}
</style>
<g id="Layer_2_1_">
	<circle class="st0" cx="508.5" cy="500" r="489.6"/>
	<g transform="translate(0.000000,511.000000) scale(0.100000,-0.100000)">
		<path class="st1" d="M4854.4,3971.7c-313.5-62.4-568.1-202.3-787.2-433.2c-202.3-214.1-330.4-487.1-367.4-782.1
			c-8.5-75.9-16.8-360.7-16.8-632.1v-493.8h1409.2h1409.2l-8.5,578.2c-8.5,655.7-21.9,745.1-146.6,994.5
			c-89.3,177-161.8,273-310.1,411.3c-182.1,168.5-359.1,266.3-610.2,333.8C5306.1,3981.8,4972.4,3995.2,4854.4,3971.7z"/>
		<path class="st1" d="M2825,1163.4c-30.4-15.2-75.9-59-101.1-96l-43.8-67.4V426.8c1.7-527.6,5.1-590,38.7-765.2
			c102.8-509,335.4-930.4,713-1292.8c318.6-301.7,761.9-539.4,1153-613.5c55.7-11.8,118-23.6,139.9-28.7l37.1-6.7v-421.4v-421.4
			H4256c-419.7,0-517.5-5.1-569.7-25.3c-79.2-33.7-133.2-84.3-175.3-166.9c-72.5-139.9-5.1-342.1,138.2-414.6
			c64-33.7,94.4-33.7,1441.2-33.7c1513.7,0,1439.5-5.1,1537.2,106.2c134.9,155.1,101.1,377.5-75.9,487.1
			c-60.7,38.7-70.8,38.7-596.7,43.8l-536,5.1v419.7v421.4l38.7,6.7c399.5,75.9,691.1,195.5,996.2,402.8
			c554.5,381,933.8,996.2,1021.5,1667.1c11.8,84.3,16.8,355.7,13.5,682.6c-5.1,519.1-6.7,544.4-40.5,590
			c-18.6,25.3-60.7,65.8-92.7,85.9c-77.5,53.9-232.6,47.2-316.9-11.8c-112.9-80.9-119.7-118-119.7-694.5
			c0-554.5-13.5-694.5-89.3-916.9c-202.3-591.6-680.9-1038.3-1287.8-1200.2c-146.6-40.5-197.2-43.8-451.7-45.5
			c-257.9,0-303.4,5.1-451.7,45.5C3947.5-1482.9,3445.2-957,3286.7-257.6c-23.6,101.1-30.4,244.4-37.1,696.1
			c-8.5,547.8-10.1,569.7-45.5,622C3121.6,1185.4,2959.8,1229.2,2825,1163.4z"/>
		<path class="st1" d="M3686.2,548.3C3693-40,3698-109.1,3730-225.4c148.3-541.1,552.9-925.4,1093.9-1036.6
			c156.8-33.8,463.6-23.6,620.3,16.8c150,40.5,424.7,182.1,536,278.1C6278.5-707.5,6442-397.4,6480.8-9.7
			c10.1,102.8,16.8,402.8,13.4,687.7l-5.1,505.7l-1404.1,5.1l-1405.8,3.4L3686.2,548.3z"/>
	</g>
</g>
</svg>
