<?xml version="1.0" encoding="utf-8"?>
<!-- Generator: Adobe Illustrator 24.3.0, SVG Export Plug-In . SVG Version: 6.00 Build 0)  -->
<svg version="1.1" id="Layer_1" focusable="false" xmlns="http://www.w3.org/2000/svg" xmlns:xlink="http://www.w3.org/1999/xlink"
	 x="0px" y="0px" viewBox="0 0 640 512" style="enable-background:new 0 0 640 512;" xml:space="preserve">
<style type="text/css">
	.st0{fill:#8C1515;}
</style>
<path class="st0" d="M192,256c61.9,0,112-50.1,112-112S253.9,32,192,32S80,82.1,80,144S130.1,256,192,256z M268.8,288h-8.3
	c-20.8,10-43.9,16-68.5,16s-47.6-6-68.5-16h-8.3C51.6,288,0,339.6,0,403.2V432c0,26.5,21.5,48,48,48h288c26.5,0,48-21.5,48-48v-28.8
	C384,339.6,332.4,288,268.8,288z M480,256c53,0,96-43,96-96s-43-96-96-96s-96,43-96,96S427,256,480,256z M528,288h-3.8
	c-13.9,4.8-28.6,8-44.2,8s-30.3-3.2-44.2-8H432c-20.4,0-39.2,5.9-55.7,15.4c24.4,26.3,39.7,61.2,39.7,99.8v38.4
	c0,2.2-0.5,4.3-0.6,6.4H592c26.5,0,48-21.5,48-48C640,338.1,589.9,288,528,288z"/>
</svg>
