<?xml version="1.0" ?><!DOCTYPE svg  PUBLIC '-//W3C//DTD SVG 1.1//EN'  'http://www.w3.org/Graphics/SVG/1.1/DTD/svg11.dtd'><svg enable-background="new 0 0 128 128" height="128px" id="Layer_1" version="1.1" viewBox="0 0 128 128" width="128px" xml:space="preserve" xmlns="http://www.w3.org/2000/svg" xmlns:xlink="http://www.w3.org/1999/xlink"><g><g><path d="M92,0H36c-8.836,0-16,7.164-16,16v96c0,8.836,7.164,16,16,16h56c8.836,0,16-7.164,16-16V16    C108,7.164,100.836,0,92,0z M100,112c0,4.414-3.586,8-8,8H36c-4.414,0-8-3.586-8-8V16c0-4.414,3.586-8,8-8h56c4.414,0,8,3.586,8,8    V112z M64,104c-2.211,0-4,1.789-4,4s1.789,4,4,4s4-1.789,4-4S66.211,104,64,104z" fill="#B0BEC5"/></g></g><path d="M84,24v64H44V24H84 M92,16H36v80h56V16L92,16z" fill="#03A9F4"/></svg>