<?xml version="1.0" encoding="utf-8"?>
<!-- Generator: Adobe Illustrator 22.0.1, SVG Export Plug-In . SVG Version: 6.00 Build 0)  -->
<svg version="1.1" id="Layer_1" xmlns="http://www.w3.org/2000/svg" xmlns:xlink="http://www.w3.org/1999/xlink" x="0px" y="0px"
	 viewBox="0 0 200 80.8" style="enable-background:new 0 0 200 80.8;" xml:space="preserve">
<style type="text/css">
	.st0{fill:#141414;}
	.st1{fill:#009DC4;}
</style>
<g>
	<path class="st0" d="M18.7,8.5H0.2V1.3h45v7.2H26.7v55.4h-8V8.5z"/>
	<path class="st1" d="M39.3,63.9v-7.1h41.5v7.1H39.3z"/>
	<path class="st0" d="M127.2,63.9V38.7h-20v25.2H93.3V1.3h13.9v24.9h20V1.3h13.9v62.6H127.2z"/>
	<path class="st0" d="M171.7,64.6c-14.4-1.3-19.9-10.2-19.9-19V19.5c0-9.5,6.5-19.2,24-19.2c17.5,0,24,9.7,24,19.2v26.1
		c0,7.3-3.9,14.8-13.8,17.8l4.9,11.7l-12.6,5.4L171.7,64.6z M185.9,20.7c0-4.9-3.1-7.9-10-7.9s-10,3-10,7.9v23.7
		c0,4.9,3.1,7.9,10,7.9s10-3,10-7.9V20.7z"/>
</g>
</svg>
