<?xml version="1.0" encoding="iso-8859-1"?>
<!-- Generator: Adobe Illustrator 19.0.0, SVG Export Plug-In . SVG Version: 6.00 Build 0)  -->
<svg xmlns="http://www.w3.org/2000/svg" xmlns:xlink="http://www.w3.org/1999/xlink" version="1.1" id="Layer_1" x="0px" y="0px" viewBox="0 0 512 512" style="enable-background:new 0 0 512 512;" xml:space="preserve" width="512px" height="512px">
<g>
	<g>
		<path d="M469.333,64H42.667C19.135,64,0,83.135,0,106.667v298.667C0,428.865,19.135,448,42.667,448h426.667    C492.865,448,512,428.865,512,405.333V106.667C512,83.135,492.865,64,469.333,64z M42.667,85.333h426.667    c1.168,0,2.177,0.486,3.294,0.667L267.333,252.677c-6.938,4.385-16.854,3.677-21.906,0.563L39.365,86.003    C40.484,85.82,41.496,85.333,42.667,85.333z M490.667,405.333c0,11.76-9.573,21.333-21.333,21.333H42.667    c-11.76,0-21.333-9.573-21.333-21.333V106.667c0-2.385,0.637-4.585,1.362-6.728l210.221,170.54    c6.927,4.479,14.917,6.854,23.083,6.854c7.875,0,15.563-2.198,22.313-6.375c0.625-0.323,1.219-0.708,1.76-1.156l209.23-169.868    c0.727,2.145,1.363,4.346,1.363,6.733V405.333z" fill="#FFFFFF"/>
	</g>
</g>
</svg>
