<?xml version="1.0" encoding="utf-8"?>
<!-- Generator: Adobe Illustrator 25.2.1, SVG Export Plug-In . SVG Version: 6.00 Build 0)  -->
<svg version="1.1" id="Layer_1" focusable="false" xmlns="http://www.w3.org/2000/svg" xmlns:xlink="http://www.w3.org/1999/xlink"
	 x="0px" y="0px" viewBox="0 0 448 512" style="enable-background:new 0 0 448 512;" xml:space="preserve">
<style type="text/css">
	.st0{fill:#FFFFFF;}
</style>
<path class="st0" d="M297.2,243.2c0,15.6-11.5,28.4-26.1,28.4c-14.3,0-26.1-12.8-26.1-28.4s11.5-28.4,26.1-28.4
	S297.2,227.6,297.2,243.2z M177.7,214.8c-14.6,0-26.1,12.8-26.1,28.4s11.8,28.4,26.1,28.4c14.6,0,26.1-12.8,26.1-28.4
	C204,227.6,192.3,214.8,177.7,214.8z M448,52.7V512c-64.5-57-43.9-38.1-118.8-107.8l13.6,47.4H52.5C23.6,451.6,0,428,0,398.8V52.7
	C0,23.6,23.6,0,52.5,0h343C424.4,0,448,23.6,448,52.7z M375,295.4c0-82.4-36.9-149.2-36.9-149.2c-36.9-27.6-71.9-26.9-71.9-26.9
	l-3.6,4.1c43.5,13.3,63.7,32.5,63.7,32.5c-60.8-33.3-132.2-33.3-191.2-7.4c-9.5,4.4-15.1,7.4-15.1,7.4s21.2-20.2,67.3-33.5l-2.6-3.1
	c0,0-35.1-0.8-71.9,26.9c0,0-36.9,66.8-36.9,149.2c0,0,21.5,37.1,78.1,38.9c0,0,9.5-11.5,17.2-21.2c-32.5-9.7-44.8-30.2-44.8-30.2
	c3.8,2.6,10,6.1,10.5,6.4c43.2,24.2,104.6,32.1,159.7,9c9-3.3,18.9-8.2,29.4-15.1c0,0-12.8,21-46.3,30.5
	c7.7,9.7,16.9,20.7,16.9,20.7C353.3,332.5,375,295.4,375,295.4L375,295.4z"/>
</svg>
