<svg version="1.1" viewBox="0.0 0.0 631.6325459317585 289.51181102362204" fill="none" stroke="none" stroke-linecap="square" stroke-miterlimit="10" xmlns:xlink="http://www.w3.org/1999/xlink" xmlns="http://www.w3.org/2000/svg"><clipPath id="p.0"><path d="m0 0l631.63257 0l0 289.5118l-631.63257 0l0 -289.5118z" clip-rule="nonzero"/></clipPath><g clip-path="url(#p.0)"><path fill="#000000" fill-opacity="0.0" d="m0 0l631.63257 0l0 289.5118l-631.63257 0z" fill-rule="evenodd"/><path fill="#000000" fill-opacity="0.0" d="m213.59317 131.87056l0 0c0 -12.224716 9.910095 -22.134804 22.134796 -22.134804l159.0375 0c5.870514 0 11.50058 2.3320541 15.651672 6.4831314c4.151062 4.151085 6.483124 9.781151 6.483124 15.651672l0 39.28946c0 12.224716 -9.910095 22.134796 -22.134796 22.134796l-159.0375 0c-12.224701 0 -22.134796 -9.91008 -22.134796 -22.134796z" fill-rule="evenodd"/><path stroke="#85888d" stroke-width="2.6666666666666665" stroke-miterlimit="400.0" stroke-linecap="butt" d="m213.59317 131.87056l0 0c0 -12.224716 9.910095 -22.134804 22.134796 -22.134804l159.0375 0c5.870514 0 11.50058 2.3320541 15.651672 6.4831314c4.151062 4.151085 6.483124 9.781151 6.483124 15.651672l0 39.28946c0 12.224716 -9.910095 22.134796 -22.134796 22.134796l-159.0375 0c-12.224701 0 -22.134796 -9.91008 -22.134796 -22.134796z" fill-rule="evenodd"/><path fill="#000000" d="m253.48375 145.02904l6.2499847 13.40625l-1.4375 0l-2.109375 -4.40625l-5.7812347 0l-2.09375 4.40625l-1.484375 0l6.328125 -13.40625l0.328125 0zm-0.171875 2.84375l-2.296875 4.859375l4.578125 0l-2.28125 -4.859375zm8.097763 -3.171875l1.265625 0l0 13.734375l-1.265625 0l0 -13.734375zm3.9067688 3.828125l1.265625 0l0 1.703125q0.671875 -0.9375 1.375 -1.375q0.96875 -0.59375 2.03125 -0.59375q0.71875 0 1.359375 0.296875q0.65625 0.28125 1.0625 0.75q0.40625 0.46875 0.703125 1.34375q0.640625 -1.171875 1.59375 -1.78125q0.96875 -0.609375 2.0625 -0.609375q1.03125 0 1.8125 0.53125q0.796875 0.515625 1.171875 1.453125q0.390625 0.921875 0.390625 2.78125l0 5.40625l-1.296875 0l0 -5.40625q0 -1.59375 -0.234375 -2.1875q-0.234375 -0.609375 -0.78125 -0.96875q-0.546875 -0.359375 -1.3125 -0.359375q-0.9375 0 -1.703125 0.546875q-0.765625 0.546875 -1.125 1.453125q-0.359375 0.90625 -0.359375 3.046875l0 3.875l-1.265625 0l0 -5.078125q0 -1.796875 -0.21875 -2.4375q-0.21875 -0.640625 -0.78125 -1.015625q-0.546875 -0.390625 -1.3125 -0.390625q-0.890625 0 -1.65625 0.53125q-0.765625 0.53125 -1.140625 1.4375q-0.375 0.890625 -0.375 2.75l0 4.203125l-1.265625 0l0 -9.90625zm22.202454 -0.265625q2.296875 0 3.796875 1.65625q1.359375 1.515625 1.359375 3.59375q0 2.078125 -1.453125 3.625q-1.4375 1.546875 -3.703125 1.546875q-2.28125 0 -3.71875 -1.546875q-1.4375 -1.546875 -1.4375 -3.625q0 -2.0625 1.359375 -3.578125q1.5 -1.671875 3.796875 -1.671875zm0 1.25q-1.578125 0 -2.71875 1.1875q-1.140625 1.171875 -1.140625 2.828125q0 1.078125 0.515625 2.015625q0.515625 0.921875 1.40625 1.4375q0.890625 0.5 1.9375 0.5q1.0625 0 1.9375 -0.5q0.890625 -0.515625 1.40625 -1.4375q0.515625 -0.9375 0.515625 -2.015625q0 -1.65625 -1.140625 -2.828125q-1.140625 -1.1875 -2.71875 -1.1875zm7.528351 -0.984375l1.28125 0l0 1.765625q0.765625 -1.015625 1.6875 -1.515625q0.921875 -0.515625 2.015625 -0.515625q1.125 0 1.984375 0.578125q0.859375 0.5625 1.265625 1.515625q0.40625 0.953125 0.40625 2.984375l0 5.09375l-1.265625 0l0 -4.734375q0 -1.703125 -0.140625 -2.28125q-0.234375 -0.984375 -0.859375 -1.46875q-0.625 -0.5 -1.640625 -0.5q-1.15625 0 -2.078125 0.765625q-0.90625 0.765625 -1.203125 1.890625q-0.171875 0.734375 -0.171875 2.6875l0 3.640625l-1.28125 0l0 -9.90625zm21.268372 -3.828125l0 13.734375l-1.25 0l0 -1.703125q-0.8125 0.96875 -1.8125 1.46875q-0.984375 0.484375 -2.171875 0.484375q-2.109375 0 -3.59375 -1.515625q-1.484375 -1.53125 -1.484375 -3.71875q0 -2.140625 1.5 -3.65625q1.5 -1.53125 3.609375 -1.53125q1.21875 0 2.203125 0.53125q1.0 0.515625 1.75 1.546875l0 -5.640625l1.25 0zm-5.09375 4.796875q-1.078125 0 -1.984375 0.53125q-0.890625 0.515625 -1.421875 1.46875q-0.53125 0.9375 -0.53125 2.0q0 1.046875 0.53125 2.0q0.546875 0.953125 1.453125 1.5q0.90625 0.53125 1.9375 0.53125q1.046875 0 1.984375 -0.53125q0.9375 -0.53125 1.4375 -1.421875q0.515625 -0.90625 0.515625 -2.046875q0 -1.71875 -1.140625 -2.875q-1.125 -1.15625 -2.78125 -1.15625zm13.367584 -4.46875l7.671875 0l0 1.328125l-6.328125 0l0 4.1875l6.28125 0l0 1.3125l-6.28125 0l0 5.25l6.28125 0l0 1.328125l-7.625 0l0 -13.40625zm9.783478 3.5l1.28125 0l0 1.765625q0.765625 -1.015625 1.6875 -1.515625q0.921875 -0.515625 2.015625 -0.515625q1.125 0 1.984375 0.578125q0.859375 0.5625 1.265625 1.515625q0.40625 0.953125 0.40625 2.984375l0 5.09375l-1.265625 0l0 -4.734375q0 -1.703125 -0.140625 -2.28125q-0.234375 -0.984375 -0.859375 -1.46875q-0.625 -0.5 -1.640625 -0.5q-1.15625 0 -2.078125 0.765625q-0.90625 0.765625 -1.203125 1.890625q-0.171875 0.734375 -0.171875 2.6875l0 3.640625l-1.28125 0l0 -9.90625zm19.909027 0l1.28125 0l0 7.890625q0 2.09375 -0.359375 3.046875q-0.5 1.375 -1.75 2.109375q-1.234375 0.734375 -2.96875 0.734375q-1.28125 0 -2.296875 -0.359375q-1.015625 -0.359375 -1.65625 -0.96875q-0.625 -0.59375 -1.171875 -1.765625l1.390625 0q0.5625 0.984375 1.453125 1.453125q0.890625 0.484375 2.21875 0.484375q1.296875 0 2.1875 -0.5q0.90625 -0.484375 1.28125 -1.21875q0.390625 -0.734375 0.390625 -2.375l0 -0.515625q-0.71875 0.921875 -1.765625 1.40625q-1.03125 0.484375 -2.1875 0.484375q-1.375 0 -2.578125 -0.671875q-1.203125 -0.6875 -1.859375 -1.828125q-0.65625 -1.15625 -0.65625 -2.53125q0 -1.375 0.6875 -2.5625q0.6875 -1.1875 1.890625 -1.875q1.203125 -0.703125 2.546875 -0.703125q1.109375 0 2.0625 0.46875q0.96875 0.453125 1.859375 1.515625l0 -1.71875zm-3.765625 0.96875q-1.078125 0 -2.015625 0.53125q-0.921875 0.515625 -1.453125 1.4375q-0.515625 0.921875 -0.515625 2.0q0 1.640625 1.078125 2.703125q1.09375 1.0625 2.84375 1.0625q1.75 0 2.8125 -1.046875q1.078125 -1.0625 1.078125 -2.78125q0 -1.125 -0.5 -2.0q-0.484375 -0.890625 -1.390625 -1.390625q-0.890625 -0.515625 -1.9375 -0.515625zm8.240387 -5.0625q0.4375 0 0.734375 0.3125q0.3125 0.3125 0.3125 0.75q0 0.4375 -0.3125 0.75q-0.296875 0.296875 -0.734375 0.296875q-0.4375 0 -0.75 -0.296875q-0.3125 -0.3125 -0.3125 -0.75q0 -0.4375 0.3125 -0.75q0.3125 -0.3125 0.75 -0.3125zm-0.640625 4.09375l1.28125 0l0 9.90625l-1.28125 0l0 -9.90625zm3.9223938 0l1.28125 0l0 1.765625q0.765625 -1.015625 1.6875 -1.515625q0.921875 -0.515625 2.015625 -0.515625q1.125 0 1.984375 0.578125q0.859375 0.5625 1.265625 1.515625q0.40625 0.953125 0.40625 2.984375l0 5.09375l-1.265625 0l0 -4.734375q0 -1.703125 -0.140625 -2.28125q-0.234375 -0.984375 -0.859375 -1.46875q-0.625 -0.5 -1.640625 -0.5q-1.15625 0 -2.078125 0.765625q-0.90625 0.765625 -1.203125 1.890625q-0.171875 0.734375 -0.171875 2.6875l0 3.640625l-1.28125 0l0 -9.90625zm19.721497 6.625l1.078125 0.5625q-0.53125 1.03125 -1.234375 1.671875q-0.6875 0.640625 -1.546875 0.96875q-0.859375 0.328125 -1.953125 0.328125q-2.421875 0 -3.796875 -1.578125q-1.359375 -1.59375 -1.359375 -3.59375q0 -1.890625 1.15625 -3.375q1.46875 -1.875 3.921875 -1.875q2.53125 0 4.046875 1.921875q1.078125 1.359375 1.09375 3.390625l-8.90625 0q0.03125 1.734375 1.09375 2.84375q1.0625 1.109375 2.640625 1.109375q0.75 0 1.46875 -0.265625q0.71875 -0.265625 1.21875 -0.703125q0.5 -0.4375 1.078125 -1.40625zm0 -2.671875q-0.25 -1.03125 -0.75 -1.640625q-0.484375 -0.609375 -1.28125 -0.984375q-0.796875 -0.375 -1.6875 -0.375q-1.453125 0 -2.5 0.953125q-0.765625 0.671875 -1.15625 2.046875l7.375 0z" fill-rule="nonzero"/><path fill="#000000" fill-opacity="0.0" d="m214.01312 254.24278l0 0c0 -6.2114105 5.0353546 -11.246765 11.24678 -11.246765l180.81352 0c2.9828491 0 5.843506 1.1849213 7.952667 3.294098c2.109192 2.1091766 3.2941284 4.9698486 3.2941284 7.952667l0 19.96315c0 6.211426 -5.03537 11.246765 -11.246796 11.246765l-180.81352 0c-6.211426 0 -11.24678 -5.0353394 -11.24678 -11.246765z" fill-rule="evenodd"/><path stroke="#85888d" stroke-width="2.6666666666666665" stroke-miterlimit="400.0" stroke-linecap="butt" d="m214.01312 254.24278l0 0c0 -6.2114105 5.0353546 -11.246765 11.24678 -11.246765l180.81352 0c2.9828491 0 5.843506 1.1849213 7.952667 3.294098c2.109192 2.1091766 3.2941284 4.9698486 3.2941284 7.952667l0 19.96315c0 6.211426 -5.03537 11.246765 -11.246796 11.246765l-180.81352 0c-6.211426 0 -11.24678 -5.0353394 -11.24678 -11.246765z" fill-rule="evenodd"/><path fill="#000000" d="m265.41495 259.0506l0 -1.3125l7.359375 0l0 1.3125l-2.984375 0l0 12.09375l-1.375 0l0 -12.09375l-3.0 0zm9.068481 -1.640625l1.28125 0l0 5.59375q0.765625 -1.015625 1.6875 -1.515625q0.9375 -0.515625 2.015625 -0.515625q1.125 0 1.984375 0.578125q0.859375 0.5625 1.265625 1.515625q0.40625 0.953125 0.40625 2.984375l0 5.09375l-1.265625 0l0 -4.734375q0 -1.703125 -0.140625 -2.28125q-0.234375 -0.984375 -0.859375 -1.46875q-0.625 -0.5 -1.640625 -0.5q-1.15625 0 -2.078125 0.765625q-0.90625 0.765625 -1.203125 1.890625q-0.171875 0.71875 -0.171875 2.6875l0 3.640625l-1.28125 0l0 -13.734375zm11.830872 -0.265625q0.4375 0 0.734375 0.3125q0.3125 0.3125 0.3125 0.75q0 0.4375 -0.3125 0.75q-0.296875 0.296875 -0.734375 0.296875q-0.4375 0 -0.75 -0.296875q-0.3125 -0.3125 -0.3125 -0.75q0 -0.4375 0.3125 -0.75q0.3125 -0.3125 0.75 -0.3125zm-0.640625 4.09375l1.28125 0l0 9.90625l-1.28125 0l0 -9.90625zm3.9223938 0l1.28125 0l0 1.765625q0.765625 -1.015625 1.6875 -1.515625q0.921875 -0.515625 2.015625 -0.515625q1.125 0 1.984375 0.578125q0.859375 0.5625 1.265625 1.515625q0.40625 0.953125 0.40625 2.984375l0 5.09375l-1.265625 0l0 -4.734375q0 -1.703125 -0.140625 -2.28125q-0.234375 -0.984375 -0.859375 -1.46875q-0.625 -0.5 -1.640625 -0.5q-1.15625 0 -2.078125 0.765625q-0.90625 0.765625 -1.203125 1.890625q-0.171875 0.734375 -0.171875 2.6875l0 3.640625l-1.28125 0l0 -9.90625zm19.909027 0l1.28125 0l0 7.890625q0 2.09375 -0.359375 3.046875q-0.5 1.375 -1.75 2.109375q-1.234375 0.734375 -2.96875 0.734375q-1.28125 0 -2.296875 -0.359375q-1.015625 -0.359375 -1.65625 -0.96875q-0.625 -0.59375 -1.171875 -1.765625l1.390625 0q0.5625 0.984375 1.453125 1.453125q0.890625 0.484375 2.21875 0.484375q1.296875 0 2.1875 -0.5q0.90625 -0.484375 1.28125 -1.21875q0.390625 -0.734375 0.390625 -2.375l0 -0.515625q-0.71875 0.921875 -1.765625 1.40625q-1.03125 0.484375 -2.1875 0.484375q-1.375 0 -2.578125 -0.671875q-1.203125 -0.6875 -1.859375 -1.828125q-0.65625 -1.15625 -0.65625 -2.53125q0 -1.375 0.6875 -2.5625q0.6875 -1.1875 1.890625 -1.875q1.203125 -0.703125 2.546875 -0.703125q1.109375 0 2.0625 0.46875q0.96875 0.453125 1.859375 1.515625l0 -1.71875zm-3.765625 0.96875q-1.078125 0 -2.015625 0.53125q-0.921875 0.515625 -1.453125 1.4375q-0.515625 0.921875 -0.515625 2.0q0 1.640625 1.078125 2.703125q1.09375 1.0625 2.84375 1.0625q1.75 0 2.8125 -1.046875q1.078125 -1.0625 1.078125 -2.78125q0 -1.125 -0.5 -2.0q-0.484375 -0.890625 -1.390625 -1.390625q-0.890625 -0.515625 -1.9375 -0.515625zm7.802887 -0.96875l1.265625 0l0 1.8125q0.765625 -1.03125 1.734375 -1.546875q0.984375 -0.53125 2.203125 -0.53125q2.109375 0 3.609375 1.53125q1.515625 1.515625 1.515625 3.65625q0 2.1875 -1.5 3.71875q-1.484375 1.515625 -3.59375 1.515625q-1.171875 0 -2.171875 -0.484375q-1.0 -0.5 -1.796875 -1.46875l0 5.328125l-1.265625 0l0 -13.53125zm5.109375 0.96875q-1.671875 0 -2.8125 1.15625q-1.125 1.15625 -1.125 2.875q0 1.140625 0.5 2.046875q0.515625 0.890625 1.453125 1.421875q0.953125 0.53125 2.0 0.53125q1.03125 0 1.9375 -0.53125q0.90625 -0.546875 1.4375 -1.5q0.53125 -0.953125 0.53125 -2.0q0 -1.0625 -0.53125 -2.0q-0.53125 -0.953125 -1.4375 -1.46875q-0.890625 -0.53125 -1.953125 -0.53125zm15.944702 5.65625l1.078125 0.5625q-0.53125 1.03125 -1.234375 1.671875q-0.6875 0.640625 -1.546875 0.96875q-0.859375 0.328125 -1.953125 0.328125q-2.421875 0 -3.796875 -1.578125q-1.359375 -1.59375 -1.359375 -3.59375q0 -1.890625 1.15625 -3.375q1.46875 -1.875 3.921875 -1.875q2.53125 0 4.046875 1.921875q1.078125 1.359375 1.09375 3.390625l-8.90625 0q0.03125 1.734375 1.09375 2.84375q1.0625 1.109375 2.640625 1.109375q0.75 0 1.46875 -0.265625q0.71875 -0.265625 1.21875 -0.703125q0.5 -0.4375 1.078125 -1.40625zm0 -2.671875q-0.25 -1.03125 -0.75 -1.640625q-0.484375 -0.609375 -1.28125 -0.984375q-0.796875 -0.375 -1.6875 -0.375q-1.453125 0 -2.5 0.953125q-0.765625 0.671875 -1.15625 2.046875l7.375 0zm13.671631 -7.78125l0 13.734375l-1.25 0l0 -1.703125q-0.8125 0.96875 -1.8125 1.46875q-0.984375 0.484375 -2.171875 0.484375q-2.109375 0 -3.59375 -1.515625q-1.484375 -1.53125 -1.484375 -3.71875q0 -2.140625 1.5 -3.65625q1.5 -1.53125 3.609375 -1.53125q1.21875 0 2.203125 0.53125q1.0 0.515625 1.75 1.546875l0 -5.640625l1.25 0zm-5.09375 4.796875q-1.078125 0 -1.984375 0.53125q-0.890625 0.515625 -1.421875 1.46875q-0.53125 0.9375 -0.53125 2.0q0 1.046875 0.53125 2.0q0.546875 0.953125 1.453125 1.5q0.90625 0.53125 1.9375 0.53125q1.046875 0 1.984375 -0.53125q0.9375 -0.53125 1.4375 -1.421875q0.515625 -0.90625 0.515625 -2.046875q0 -1.71875 -1.140625 -2.875q-1.125 -1.15625 -2.78125 -1.15625zm8.436859 -5.0625q0.4375 0 0.734375 0.3125q0.3125 0.3125 0.3125 0.75q0 0.4375 -0.3125 0.75q-0.296875 0.296875 -0.734375 0.296875q-0.4375 0 -0.75 -0.296875q-0.3125 -0.3125 -0.3125 -0.75q0 -0.4375 0.3125 -0.75q0.3125 -0.3125 0.75 -0.3125zm-0.640625 4.09375l1.28125 0l0 9.90625l-1.28125 0l0 -9.90625zm13.797394 0l0 9.90625l-1.265625 0l0 -1.703125q-0.796875 0.96875 -1.796875 1.46875q-1.0 0.484375 -2.171875 0.484375q-2.109375 0 -3.609375 -1.515625q-1.484375 -1.53125 -1.484375 -3.71875q0 -2.140625 1.5 -3.65625q1.515625 -1.53125 3.625 -1.53125q1.21875 0 2.203125 0.53125q1.0 0.515625 1.734375 1.546875l0 -1.8125l1.265625 0zm-5.109375 0.96875q-1.0625 0 -1.96875 0.53125q-0.890625 0.515625 -1.421875 1.46875q-0.53125 0.9375 -0.53125 2.0q0 1.046875 0.53125 2.0q0.53125 0.953125 1.4375 1.5q0.90625 0.53125 1.953125 0.53125q1.046875 0 1.984375 -0.53125q0.9375 -0.53125 1.4375 -1.421875q0.515625 -0.90625 0.515625 -2.046875q0 -1.71875 -1.140625 -2.875q-1.125 -1.15625 -2.796875 -1.15625z" fill-rule="nonzero"/><path fill="#000000" fill-opacity="0.0" d="m213.59431 15.692972l0 0c0 -6.211424 5.0353546 -11.2467785 11.24678 -11.2467785l180.81354 0c2.9828186 0 5.8434753 1.1849251 7.952667 3.294105c2.1091614 2.1091805 3.294098 4.969842 3.294098 7.952673l0 19.963137c0 6.211426 -5.0353394 11.246777 -11.246765 11.246777l-180.81354 0c-6.211426 0 -11.24678 -5.035351 -11.24678 -11.246777z" fill-rule="evenodd"/><path stroke="#85888d" stroke-width="2.6666666666666665" stroke-miterlimit="400.0" stroke-linecap="butt" d="m213.59431 15.692972l0 0c0 -6.211424 5.0353546 -11.2467785 11.24678 -11.2467785l180.81354 0c2.9828186 0 5.8434753 1.1849251 7.952667 3.294105c2.1091614 2.1091805 3.294098 4.969842 3.294098 7.952673l0 19.963137c0 6.211426 -5.0353394 11.246777 -11.246765 11.246777l-180.81354 0c-6.211426 0 -11.24678 -5.035351 -11.24678 -11.246777z" fill-rule="evenodd"/><path fill="#000000" d="m255.98088 19.188288l6.2499847 13.406252l-1.4375 0l-2.109375 -4.406252l-5.7812347 0l-2.09375 4.406252l-1.484375 0l6.328125 -13.406252l0.328125 0zm-0.171875 2.84375l-2.296875 4.859375l4.5781097 0l-2.2812347 -4.859375zm8.097763 -3.171875l1.265625 0l0 13.734377l-1.265625 0l0 -13.734377zm3.9067688 3.828125l1.265625 0l0 1.703125q0.671875 -0.9375 1.375 -1.375q0.96875 -0.59375 2.03125 -0.59375q0.71875 0 1.359375 0.296875q0.65625 0.28125 1.0625 0.75q0.40625 0.46875 0.703125 1.34375q0.640625 -1.171875 1.59375 -1.78125q0.96875 -0.609375 2.0625 -0.609375q1.03125 0 1.8125 0.53125q0.796875 0.515625 1.171875 1.453125q0.390625 0.921875 0.390625 2.78125l0 5.406252l-1.296875 0l0 -5.406252q0 -1.59375 -0.234375 -2.1875q-0.234375 -0.609375 -0.78125 -0.96875q-0.546875 -0.359375 -1.3125 -0.359375q-0.9375 0 -1.703125 0.546875q-0.765625 0.546875 -1.125 1.453125q-0.359375 0.90625 -0.359375 3.046875l0 3.875002l-1.265625 0l0 -5.078127q0 -1.796875 -0.21875 -2.4375q-0.21875 -0.640625 -0.78125 -1.015625q-0.546875 -0.390625 -1.3125 -0.390625q-0.890625 0 -1.65625 0.53125q-0.765625 0.53125 -1.140625 1.4375q-0.375 0.890625 -0.375 2.75l0 4.203127l-1.265625 0l0 -9.906252zm22.202454 -0.265625q2.296875 0 3.796875 1.65625q1.359375 1.515625 1.359375 3.59375q0 2.078125 -1.453125 3.625q-1.4375 1.5468769 -3.703125 1.5468769q-2.28125 0 -3.71875 -1.5468769q-1.4375 -1.546875 -1.4375 -3.625q0 -2.0625 1.359375 -3.578125q1.5 -1.671875 3.796875 -1.671875zm0 1.25q-1.578125 0 -2.71875 1.1875q-1.140625 1.171875 -1.140625 2.828125q0 1.078125 0.515625 2.015625q0.515625 0.921875 1.40625 1.4375q0.890625 0.5 1.9375 0.5q1.0625 0 1.9375 -0.5q0.890625 -0.515625 1.40625 -1.4375q0.515625 -0.9375 0.515625 -2.015625q0 -1.65625 -1.140625 -2.828125q-1.140625 -1.1875 -2.71875 -1.1875zm7.528351 -0.984375l1.28125 0l0 1.765625q0.765625 -1.015625 1.6875 -1.515625q0.921875 -0.515625 2.015625 -0.515625q1.125 0 1.984375 0.578125q0.859375 0.5625 1.265625 1.515625q0.40625 0.953125 0.40625 2.984375l0 5.093752l-1.265625 0l0 -4.734377q0 -1.703125 -0.140625 -2.28125q-0.234375 -0.984375 -0.859375 -1.46875q-0.625 -0.5 -1.640625 -0.5q-1.15625 0 -2.078125 0.765625q-0.90625 0.765625 -1.203125 1.890625q-0.171875 0.734375 -0.171875 2.6875l0 3.640627l-1.28125 0l0 -9.906252zm21.268372 -3.828125l0 13.734377l-1.25 0l0 -1.7031269q-0.8125 0.96875 -1.8125 1.4687519q-0.984375 0.484375 -2.171875 0.484375q-2.109375 0 -3.59375 -1.5156269q-1.484375 -1.53125 -1.484375 -3.71875q0 -2.140625 1.5 -3.65625q1.5 -1.53125 3.609375 -1.53125q1.21875 0 2.203125 0.53125q1.0 0.515625 1.75 1.546875l0 -5.640625l1.25 0zm-5.09375 4.796875q-1.078125 0 -1.984375 0.53125q-0.890625 0.515625 -1.421875 1.46875q-0.53125 0.9375 -0.53125 2.0q0 1.046875 0.53125 2.0q0.546875 0.953125 1.453125 1.5q0.90625 0.53125 1.9375 0.53125q1.046875 0 1.984375 -0.53125q0.9375 -0.53125 1.4375 -1.421875q0.515625 -0.90625 0.515625 -2.046875q0 -1.71875 -1.140625 -2.875q-1.125 -1.15625 -2.78125 -1.15625zm18.836334 -4.46875l6.25 13.406252l-1.4375 0l-2.109375 -4.406252l-5.78125 0l-2.09375 4.406252l-1.484375 0l6.328125 -13.406252l0.328125 0zm-0.171875 2.84375l-2.296875 4.859375l4.578125 0l-2.28125 -4.859375zm16.816528 0.65625l1.28125 0l0 7.890625q0 2.093752 -0.359375 3.046877q-0.5 1.375 -1.75 2.109375q-1.234375 0.734375 -2.96875 0.734375q-1.28125 0 -2.296875 -0.359375q-1.015625 -0.359375 -1.65625 -0.96875q-0.625 -0.59375 -1.171875 -1.765625l1.390625 0q0.5625 0.984375 1.453125 1.453125q0.890625 0.484375 2.21875 0.484375q1.296875 0 2.1875 -0.5q0.90625 -0.484375 1.28125 -1.21875q0.390625 -0.734375 0.390625 -2.375002l0 -0.515625q-0.71875 0.921875 -1.765625 1.4062519q-1.03125 0.484375 -2.1875 0.484375q-1.375 0 -2.578125 -0.6718769q-1.203125 -0.6875 -1.859375 -1.828125q-0.65625 -1.15625 -0.65625 -2.53125q0 -1.375 0.6875 -2.5625q0.6875 -1.1875 1.890625 -1.875q1.203125 -0.703125 2.546875 -0.703125q1.109375 0 2.0625 0.46875q0.96875 0.453125 1.859375 1.515625l0 -1.71875zm-3.765625 0.96875q-1.078125 0 -2.015625 0.53125q-0.921875 0.515625 -1.453125 1.4375q-0.515625 0.921875 -0.515625 2.0q0 1.640625 1.078125 2.703125q1.09375 1.0625 2.84375 1.0625q1.75 0 2.8125 -1.046875q1.078125 -1.0625 1.078125 -2.78125q0 -1.125 -0.5 -2.0q-0.484375 -0.890625 -1.390625 -1.390625q-0.890625 -0.515625 -1.9375 -0.515625zm16.131012 5.65625l1.078125 0.5625q-0.53125 1.03125 -1.234375 1.671875q-0.6875 0.6406269 -1.546875 0.9687519q-0.859375 0.328125 -1.953125 0.328125q-2.421875 0 -3.796875 -1.5781269q-1.359375 -1.59375 -1.359375 -3.59375q0 -1.890625 1.15625 -3.375q1.46875 -1.875 3.921875 -1.875q2.53125 0 4.046875 1.921875q1.078125 1.359375 1.09375 3.390625l-8.90625 0q0.03125 1.734375 1.09375 2.84375q1.0625 1.109375 2.640625 1.109375q0.75 0 1.46875 -0.265625q0.71875 -0.265625 1.21875 -0.703125q0.5 -0.4375 1.078125 -1.40625zm0 -2.671875q-0.25 -1.03125 -0.75 -1.640625q-0.484375 -0.609375 -1.28125 -0.984375q-0.796875 -0.375 -1.6875 -0.375q-1.453125 0 -2.5 0.953125q-0.765625 0.671875 -1.15625 2.046875l7.375 0zm3.7809753 -3.953125l1.28125 0l0 1.765625q0.765625 -1.015625 1.6875 -1.515625q0.921875 -0.515625 2.015625 -0.515625q1.125 0 1.984375 0.578125q0.859375 0.5625 1.265625 1.515625q0.40625 0.953125 0.40625 2.984375l0 5.093752l-1.265625 0l0 -4.734377q0 -1.703125 -0.140625 -2.28125q-0.234375 -0.984375 -0.859375 -1.46875q-0.625 -0.5 -1.640625 -0.5q-1.15625 0 -2.078125 0.765625q-0.90625 0.765625 -1.203125 1.890625q-0.171875 0.734375 -0.171875 2.6875l0 3.640627l-1.28125 0l0 -9.906252zm12.487152 -3.6875l1.28125 0l0 3.6875l2.03125 0l0 1.09375l-2.03125 0l0 8.812502l-1.28125 0l0 -8.812502l-1.734375 0l0 -1.09375l1.734375 0l0 -3.6875z" fill-rule="nonzero"/><path fill="#000000" fill-opacity="0.0" d="m188.45955 71.614174l117.70079 0l0 37.51181l-117.70079 0z" fill-rule="evenodd"/><path fill="#c82506" d="m200.65622 80.59195l-0.921875 0q0.03125 -1.40625 0.9375 -2.3125q0.921875 -0.921875 2.25 -0.921875q1.328125 0 2.140625 0.859375q0.8125 0.84375 0.8125 2.0q0 0.8125 -0.390625 1.53125q-0.390625 0.703125 -1.515625 1.921875l-2.375 2.578125l4.40625 0l0 0.921875l-6.5 0l3.65625 -3.953125q1.125 -1.1875 1.453125 -1.765625q0.34375 -0.578125 0.34375 -1.21875q0 -0.796875 -0.609375 -1.375q-0.59375 -0.59375 -1.46875 -0.59375q-0.921875 0 -1.53125 0.625q-0.609375 0.609375 -0.6875 1.703125zm7.855194 5.140625q0.328125 0 0.5625 0.234375q0.234375 0.234375 0.234375 0.578125q0 0.328125 -0.234375 0.578125q-0.234375 0.234375 -0.5625 0.234375q-0.328125 0 -0.5625 -0.234375q-0.234375 -0.25 -0.234375 -0.578125q0 -0.34375 0.234375 -0.578125q0.234375 -0.234375 0.5625 -0.234375zm6.036194 -5.640625l0.921875 0l0 1.03125q0.421875 -0.609375 0.875 -0.90625q0.46875 -0.3125 0.96875 -0.3125q0.375 0 0.8125 0.25l-0.46875 0.765625q-0.296875 -0.125 -0.484375 -0.125q-0.453125 0 -0.890625 0.375q-0.421875 0.375 -0.640625 1.15625q-0.171875 0.609375 -0.171875 2.453125l0 2.390625l-0.921875 0l0 -7.078125zm4.2276 0l0.921875 0l0 3.296875q0 1.21875 0.140625 1.671875q0.1875 0.65625 0.734375 1.03125q0.546875 0.375 1.3125 0.375q0.765625 0 1.296875 -0.359375q0.53125 -0.375 0.734375 -0.96875q0.125 -0.421875 0.125 -1.75l0 -3.296875l0.9375 0l0 3.46875q0 1.46875 -0.34375 2.21875q-0.34375 0.734375 -1.03125 1.15625q-0.6875 0.421875 -1.71875 0.421875q-1.03125 0 -1.734375 -0.421875q-0.6875 -0.421875 -1.03125 -1.171875q-0.34375 -0.75 -0.34375 -2.265625l0 -3.40625zm8.22731 0l0.90625 0l0 1.265625q0.546875 -0.734375 1.203125 -1.09375q0.671875 -0.359375 1.453125 -0.359375q0.796875 0 1.40625 0.40625q0.625 0.40625 0.90625 1.09375q0.296875 0.671875 0.296875 2.125l0 3.640625l-0.90625 0l0 -3.375q0 -1.21875 -0.09375 -1.640625q-0.171875 -0.703125 -0.625 -1.046875q-0.4375 -0.359375 -1.15625 -0.359375q-0.828125 0 -1.484375 0.546875q-0.65625 0.546875 -0.859375 1.359375q-0.140625 0.515625 -0.140625 1.921875l0 2.59375l-0.90625 0l0 -7.078125zm11.021439 -1.5625l0 -0.9375l5.25 0l0 0.9375l-2.140625 0l0 8.640625l-0.96875 0l0 -8.640625l-2.140625 0zm6.4717407 -1.171875l0.90625 0l0 4.0q0.5625 -0.734375 1.21875 -1.09375q0.671875 -0.359375 1.4375 -0.359375q0.796875 0 1.40625 0.40625q0.625 0.40625 0.90625 1.09375q0.296875 0.671875 0.296875 2.125l0 3.640625l-0.90625 0l0 -3.375q0 -1.21875 -0.09375 -1.640625q-0.171875 -0.703125 -0.625 -1.046875q-0.4375 -0.359375 -1.15625 -0.359375q-0.828125 0 -1.484375 0.546875q-0.65625 0.546875 -0.859375 1.359375q-0.140625 0.515625 -0.140625 1.921875l0 2.59375l-0.90625 0l0 -9.8125zm8.440842 -0.1875q0.3125 0 0.53125 0.234375q0.234375 0.21875 0.234375 0.53125q0 0.296875 -0.234375 0.515625q-0.21875 0.21875 -0.53125 0.21875q-0.296875 0 -0.53125 -0.21875q-0.21875 -0.21875 -0.21875 -0.515625q0 -0.3125 0.21875 -0.53125q0.234375 -0.234375 0.53125 -0.234375zm-0.453125 2.921875l0.921875 0l0 7.078125l-0.921875 0l0 -7.078125zm2.8088531 0l0.90625 0l0 1.265625q0.546875 -0.734375 1.203125 -1.09375q0.671875 -0.359375 1.453125 -0.359375q0.796875 0 1.40625 0.40625q0.625 0.40625 0.90625 1.09375q0.296875 0.671875 0.296875 2.125l0 3.640625l-0.90625 0l0 -3.375q0 -1.21875 -0.09375 -1.640625q-0.171875 -0.703125 -0.625 -1.046875q-0.4375 -0.359375 -1.15625 -0.359375q-0.828125 0 -1.484375 0.546875q-0.65625 0.546875 -0.859375 1.359375q-0.140625 0.515625 -0.140625 1.921875l0 2.59375l-0.90625 0l0 -7.078125zm14.222076 0l0.921875 0l0 5.640625q0 1.484375 -0.265625 2.171875q-0.359375 0.984375 -1.25 1.5q-0.875 0.53125 -2.109375 0.53125q-0.921875 0 -1.65625 -0.25q-0.71875 -0.25 -1.171875 -0.6875q-0.453125 -0.4375 -0.84375 -1.265625l1.0 0q0.40625 0.703125 1.03125 1.03125q0.640625 0.34375 1.59375 0.34375q0.921875 0 1.5625 -0.34375q0.640625 -0.34375 0.90625 -0.875q0.28125 -0.53125 0.28125 -1.703125l0 -0.359375q-0.515625 0.640625 -1.265625 1.0q-0.734375 0.34375 -1.5625 0.34375q-0.96875 0 -1.828125 -0.484375q-0.859375 -0.484375 -1.328125 -1.296875q-0.46875 -0.828125 -0.46875 -1.8125q0 -0.984375 0.484375 -1.828125q0.484375 -0.859375 1.34375 -1.34375q0.859375 -0.5 1.828125 -0.5q0.796875 0 1.46875 0.328125q0.6875 0.328125 1.328125 1.09375l0 -1.234375zm-2.6875 0.6875q-0.765625 0 -1.4375 0.375q-0.65625 0.375 -1.046875 1.046875q-0.375 0.65625 -0.375 1.421875q0 1.171875 0.78125 1.9375q0.78125 0.75 2.03125 0.75q1.25 0 2.015625 -0.75q0.765625 -0.765625 0.765625 -1.984375q0 -0.8125 -0.359375 -1.4375q-0.34375 -0.625 -0.984375 -0.984375q-0.640625 -0.375 -1.390625 -0.375zm4.76474 -2.25l0 -0.9375l5.25 0l0 0.9375l-2.140625 0l0 8.640625l-0.96875 0l0 -8.640625l-2.140625 0zm13.518616 1.5625l0 7.078125l-0.890625 0l0 -1.21875q-0.578125 0.703125 -1.296875 1.0625q-0.703125 0.34375 -1.546875 0.34375q-1.5 0 -2.5625 -1.09375q-1.0625 -1.09375 -1.0625 -2.65625q0 -1.53125 1.0625 -2.609375q1.078125 -1.09375 2.59375 -1.09375q0.859375 0 1.5625 0.375q0.71875 0.375 1.25 1.109375l0 -1.296875l0.890625 0zm-3.640625 0.6875q-0.765625 0 -1.40625 0.375q-0.640625 0.375 -1.03125 1.0625q-0.375 0.671875 -0.375 1.421875q0 0.75 0.375 1.4375q0.390625 0.6875 1.03125 1.0625q0.65625 0.375 1.40625 0.375q0.75 0 1.421875 -0.375q0.671875 -0.375 1.03125 -1.015625q0.359375 -0.640625 0.359375 -1.453125q0 -1.234375 -0.8125 -2.0625q-0.8125 -0.828125 -2.0 -0.828125zm5.5576477 -3.421875l0.921875 0l0 9.8125l-0.921875 0l0 -9.8125zm2.808838 0l0.90625 0l0 5.578125l3.28125 -2.84375l1.34375 0l-3.890625 3.375l4.109375 3.703125l-1.28125 0l-3.5625 -3.1875l0 3.1875l-0.90625 0l0 -9.8125z" fill-rule="nonzero"/><path fill="#c82506" d="m220.13605 96.09195l0.90625 0l0 1.296875q0.53125 -0.734375 1.234375 -1.109375q0.703125 -0.375 1.578125 -0.375q1.5 0 2.578125 1.09375q1.078125 1.078125 1.078125 2.609375q0 1.5625 -1.0625 2.65625q-1.0625 1.09375 -2.578125 1.09375q-0.84375 0 -1.5625 -0.34375q-0.703125 -0.359375 -1.265625 -1.0625l0 3.8125l-0.90625 0l0 -9.671875zm3.640625 0.6875q-1.1875 0 -2.0 0.828125q-0.796875 0.828125 -0.796875 2.0625q0 0.8125 0.359375 1.453125q0.359375 0.640625 1.03125 1.015625q0.671875 0.375 1.421875 0.375q0.734375 0 1.375 -0.375q0.65625 -0.375 1.03125 -1.0625q0.390625 -0.6875 0.390625 -1.4375q0 -0.75 -0.390625 -1.421875q-0.375 -0.6875 -1.015625 -1.0625q-0.640625 -0.375 -1.40625 -0.375zm5.091507 -0.6875l0.921875 0l0 1.03125q0.421875 -0.609375 0.875 -0.90625q0.46875 -0.3125 0.96875 -0.3125q0.375 0 0.8125 0.25l-0.46875 0.765625q-0.296875 -0.125 -0.484375 -0.125q-0.453125 0 -0.890625 0.375q-0.421875 0.375 -0.640625 1.15625q-0.171875 0.609375 -0.171875 2.453125l0 2.390625l-0.921875 0l0 -7.078125zm7.69635 -0.1875q1.640625 0 2.71875 1.1875q0.96875 1.078125 0.96875 2.5625q0 1.484375 -1.03125 2.59375q-1.03125 1.109375 -2.65625 1.109375q-1.625 0 -2.65625 -1.109375q-1.03125 -1.109375 -1.03125 -2.59375q0 -1.46875 0.984375 -2.5625q1.078125 -1.1875 2.703125 -1.1875zm0 0.890625q-1.125 0 -1.9375 0.84375q-0.8125 0.84375 -0.8125 2.03125q0 0.765625 0.359375 1.4375q0.375 0.65625 1.0 1.015625q0.640625 0.359375 1.390625 0.359375q0.765625 0 1.390625 -0.359375q0.640625 -0.359375 1.0 -1.015625q0.375 -0.671875 0.375 -1.4375q0 -1.1875 -0.8125 -2.03125q-0.8125 -0.84375 -1.953125 -0.84375zm11.477066 -0.703125l0.921875 0l0 5.640625q0 1.484375 -0.265625 2.171875q-0.359375 0.984375 -1.25 1.5q-0.875 0.53125 -2.109375 0.53125q-0.921875 0 -1.65625 -0.25q-0.71875 -0.25 -1.171875 -0.6875q-0.453125 -0.4375 -0.84375 -1.265625l1.0 0q0.40625 0.703125 1.03125 1.03125q0.640625 0.34375 1.59375 0.34375q0.921875 0 1.5625 -0.34375q0.640625 -0.34375 0.90625 -0.875q0.28125 -0.53125 0.28125 -1.703125l0 -0.359375q-0.515625 0.640625 -1.265625 1.0q-0.734375 0.34375 -1.5625 0.34375q-0.96875 0 -1.828125 -0.484375q-0.859375 -0.484375 -1.328125 -1.296875q-0.46875 -0.828125 -0.46875 -1.8125q0 -0.984375 0.484375 -1.828125q0.484375 -0.859375 1.34375 -1.34375q0.859375 -0.5 1.828125 -0.5q0.796875 0 1.46875 0.328125q0.6875 0.328125 1.328125 1.09375l0 -1.234375zm-2.6875 0.6875q-0.765625 0 -1.4375 0.375q-0.65625 0.375 -1.046875 1.046875q-0.375 0.65625 -0.375 1.421875q0 1.171875 0.78125 1.9375q0.78125 0.75 2.03125 0.75q1.25 0 2.015625 -0.75q0.765625 -0.765625 0.765625 -1.984375q0 -0.8125 -0.359375 -1.4375q-0.34375 -0.625 -0.984375 -0.984375q-0.640625 -0.375 -1.390625 -0.375zm5.2178497 -0.6875l0.921875 0l0 1.03125q0.421875 -0.609375 0.875 -0.90625q0.46875 -0.3125 0.96875 -0.3125q0.375 0 0.8125 0.25l-0.46875 0.765625q-0.296875 -0.125 -0.484375 -0.125q-0.453125 0 -0.890625 0.375q-0.421875 0.375 -0.640625 1.15625q-0.171875 0.609375 -0.171875 2.453125l0 2.390625l-0.921875 0l0 -7.078125zm11.39949 0l0 7.078125l-0.890625 0l0 -1.21875q-0.578125 0.703125 -1.296875 1.0625q-0.703125 0.34375 -1.546875 0.34375q-1.5 0 -2.5625153 -1.09375q-1.0625 -1.09375 -1.0625 -2.65625q0 -1.53125 1.0625 -2.609375q1.0781403 -1.09375 2.5937653 -1.09375q0.859375 0 1.5625 0.375q0.71875 0.375 1.25 1.109375l0 -1.296875l0.890625 0zm-3.640625 0.6875q-0.765625 0 -1.40625 0.375q-0.640625 0.375 -1.0312653 1.0625q-0.375 0.671875 -0.375 1.421875q0 0.75 0.375 1.4375q0.39064026 0.6875 1.0312653 1.0625q0.65625 0.375 1.40625 0.375q0.75 0 1.421875 -0.375q0.671875 -0.375 1.03125 -1.015625q0.359375 -0.640625 0.359375 -1.453125q0 -1.234375 -0.8125 -2.0625q-0.8125 -0.828125 -2.0 -0.828125zm5.6982727 -0.6875l0.890625 0l0 1.21875q0.484375 -0.671875 0.984375 -0.984375q0.6875 -0.421875 1.453125 -0.421875q0.515625 0 0.96875 0.203125q0.46875 0.203125 0.75 0.546875q0.296875 0.328125 0.515625 0.953125q0.453125 -0.828125 1.140625 -1.265625q0.6875 -0.4375 1.46875 -0.4375q0.734375 0 1.296875 0.375q0.5625 0.375 0.828125 1.046875q0.28125 0.65625 0.28125 1.984375l0 3.859375l-0.921875 0l0 -3.859375q0 -1.140625 -0.171875 -1.5625q-0.15625 -0.4375 -0.5625 -0.6875q-0.390625 -0.265625 -0.9375 -0.265625q-0.65625 0 -1.203125 0.390625q-0.546875 0.390625 -0.8125 1.046875q-0.25 0.640625 -0.25 2.171875l0 2.765625l-0.90625 0l0 -3.625q0 -1.28125 -0.15625 -1.734375q-0.15625 -0.46875 -0.5625 -0.734375q-0.390625 -0.28125 -0.9375 -0.28125q-0.625 0 -1.1875 0.390625q-0.546875 0.375 -0.8125 1.015625q-0.265625 0.640625 -0.265625 1.96875l0 3.0l-0.890625 0l0 -7.078125z" fill-rule="nonzero"/><path fill="#000000" fill-opacity="0.0" d="m2.4356592 67.14173l61.007877 0l0 27.748032l-61.007877 0z" fill-rule="evenodd"/><path fill="#000000" d="m16.014433 74.529495l1.34375 0l0 8.09375q0 1.4375 0.046875 1.796875q0.109375 0.796875 0.46875 1.328125q0.375 0.53125 1.125 0.890625q0.75 0.359375 1.515625 0.359375q0.671875 0 1.28125 -0.28125q0.609375 -0.28125 1.015625 -0.78125q0.40625 -0.5 0.609375 -1.21875q0.125 -0.5 0.125 -2.09375l0 -8.09375l1.34375 0l0 8.09375q0 1.796875 -0.359375 2.90625q-0.34375 1.109375 -1.390625 1.9375q-1.046875 0.8125 -2.546875 0.8125q-1.625 0 -2.78125 -0.78125q-1.15625 -0.78125 -1.546875 -2.046875q-0.25 -0.78125 -0.25 -2.828125l0 -8.09375zm16.950209 4.578125l-0.828125 0.84375q-1.0156231 -0.984375 -1.9843731 -0.984375q-0.625 0 -1.0625 0.40625q-0.4375 0.40625 -0.4375 0.953125q0 0.484375 0.359375 0.921875q0.359375 0.453125 1.53125 1.046875q1.421875 0.734375 1.9218731 1.421875q0.5 0.6875 0.5 1.5625q0 1.21875 -0.859375 2.0625q-0.8437481 0.84375 -2.124998 0.84375q-0.859375 0 -1.640625 -0.359375q-0.78125 -0.375 -1.296875 -1.03125l0.8125 -0.921875q0.96875 1.109375 2.0625 1.109375q0.765625 0 1.296875 -0.484375q0.546875 -0.5 0.546875 -1.171875q0 -0.546875 -0.359375 -0.96875q-0.359375 -0.421875 -1.59375 -1.0625q-1.34375 -0.6875 -1.828125 -1.359375q-0.484375 -0.671875 -0.484375 -1.546875q0 -1.125 0.765625 -1.875q0.78125 -0.75 1.953125 -0.75q1.359375 0 2.749998 1.34375zm10.601425 5.546875l1.078125 0.5625q-0.53125 1.03125 -1.234375 1.671875q-0.6875 0.640625 -1.546875 0.96875q-0.859375 0.328125 -1.953125 0.328125q-2.421875 0 -3.796875 -1.578125q-1.359375 -1.59375 -1.359375 -3.59375q0 -1.890625 1.15625 -3.375q1.46875 -1.875 3.921875 -1.875q2.53125 0 4.046875 1.921875q1.078125 1.359375 1.09375 3.390625l-8.90625 0q0.03125 1.734375 1.09375 2.84375q1.0625 1.109375 2.640625 1.109375q0.75 0 1.46875 -0.265625q0.71875 -0.265625 1.21875 -0.703125q0.5 -0.4375 1.078125 -1.40625zm0 -2.671875q-0.25 -1.03125 -0.75 -1.640625q-0.484375 -0.609375 -1.28125 -0.984375q-0.796875 -0.375 -1.6875 -0.375q-1.453125 0 -2.5 0.953125q-0.765625 0.671875 -1.15625 2.046875l7.375 0zm3.2966156 -3.953125l1.296875 0l0 1.4375q0.59375 -0.84375 1.234375 -1.265625q0.65625 -0.4375 1.34375 -0.4375q0.53125 0 1.140625 0.34375l-0.671875 1.078125q-0.40625 -0.171875 -0.671875 -0.171875q-0.640625 0 -1.234375 0.53125q-0.59375 0.515625 -0.890625 1.609375q-0.25 0.84375 -0.25 3.421875l0 3.359375l-1.296875 0l0 -9.90625z" fill-rule="nonzero"/><path fill="#000000" fill-opacity="0.0" d="m63.443535 81.01575l150.14172 70.48819" fill-rule="evenodd"/><path stroke="#000000" stroke-width="3.0" stroke-miterlimit="400.0" stroke-linecap="butt" d="m75.66381 86.75289l121.627754 57.101524" fill-rule="evenodd"/><path fill="#000000" stroke="#000000" stroke-width="3.0" stroke-linecap="butt" d="m77.073586 83.75003l-9.660088 -0.87047577l6.8405304 6.8762054z" fill-rule="evenodd"/><path fill="#000000" stroke="#000000" stroke-width="3.0" stroke-linecap="butt" d="m195.18573 148.33987l14.429565 1.3002472l-10.217911 -10.271179z" fill-rule="evenodd"/><path fill="#000000" fill-opacity="0.0" d="m63.451855 7.705526l90.04724 0l0 35.937008l-90.04724 0z" fill-rule="evenodd"/><path fill="#c82506" d="m89.16886 14.895905l1.875 0l0 9.578125l-0.953125 0l0 -8.640625l-1.5 0l0.578125 -0.9375zm6.933319 8.140625q0.328125 0 0.5625 0.234375q0.234375 0.234375 0.234375 0.578125q0 0.328125 -0.234375 0.578125q-0.234375 0.234375 -0.5625 0.234375q-0.328125 0 -0.5625 -0.234375q-0.234375 -0.25 -0.234375 -0.578125q0 -0.34375 0.234375 -0.578125q0.234375 -0.234375 0.5625 -0.234375zm5.536194 -0.34375l0.8125 -0.484375q0.859375 1.578125 1.984375 1.578125q0.484375 0 0.90625 -0.21875q0.421875 -0.234375 0.640625 -0.609375q0.234375 -0.375 0.234375 -0.796875q0 -0.484375 -0.328125 -0.953125q-0.453125 -0.625 -1.640625 -1.53125q-1.203125 -0.90625 -1.5 -1.3125q-0.5 -0.671875 -0.5 -1.453125q0 -0.625 0.296875 -1.140625q0.296875 -0.515625 0.84375 -0.8125q0.546875 -0.296875 1.1875 -0.296875q0.671875 0 1.25 0.34375q0.59375 0.328125 1.25 1.21875l-0.78125 0.59375q-0.53125 -0.71875 -0.921875 -0.9375q-0.375 -0.234375 -0.828125 -0.234375q-0.578125 0 -0.953125 0.359375q-0.359375 0.34375 -0.359375 0.859375q0 0.3125 0.125 0.609375q0.140625 0.296875 0.484375 0.640625q0.1875 0.171875 1.234375 0.953125q1.25 0.921875 1.703125 1.640625q0.46875 0.703125 0.46875 1.421875q0 1.046875 -0.796875 1.8125q-0.78125 0.765625 -1.921875 0.765625q-0.875 0 -1.578125 -0.453125q-0.703125 -0.46875 -1.3125 -1.5625zm8.278656 -7.921875l0.921875 0l0 2.625l1.4375 0l0 0.78125l-1.4375 0l0 6.296875l-0.921875 0l0 -6.296875l-1.25 0l0 -0.78125l1.25 0l0 -2.625zm10.766464 2.625l0 7.078125l-0.890625 0l0 -1.21875q-0.578125 0.703125 -1.296875 1.0625q-0.703125 0.34375 -1.546875 0.34375q-1.5 0 -2.5625 -1.09375q-1.0625 -1.09375 -1.0625 -2.65625q0 -1.53125 1.0625 -2.609375q1.078125 -1.09375 2.59375 -1.09375q0.859375 0 1.5625 0.375q0.71875 0.375 1.25 1.109375l0 -1.296875l0.890625 0zm-3.640625 0.6875q-0.765625 0 -1.40625 0.375q-0.640625 0.375 -1.03125 1.0625q-0.375 0.671875 -0.375 1.421875q0 0.75 0.375 1.4375q0.390625 0.6875 1.03125 1.0625q0.65625 0.375 1.40625 0.375q0.75 0 1.421875 -0.375q0.671875 -0.375 1.03125 -1.015625q0.359375 -0.640625 0.359375 -1.453125q0 -1.234375 -0.8125 -2.0625q-0.8125 -0.828125 -2.0 -0.828125zm5.3545227 -0.6875l0.921875 0l0 1.03125q0.421875 -0.609375 0.875 -0.90625q0.46875 -0.3125 0.96875 -0.3125q0.375 0 0.8125 0.25l-0.46875 0.765625q-0.296875 -0.125 -0.484375 -0.125q-0.453125 0 -0.890625 0.375q-0.421875 0.375 -0.640625 1.15625q-0.171875 0.609375 -0.171875 2.453125l0 2.390625l-0.921875 0l0 -7.078125zm5.149475 -2.625l0.9218826 0l0 2.625l1.4375 0l0 0.78125l-1.4375 0l0 6.296875l-0.9218826 0l0 -6.296875l-1.25 0l0 -0.78125l1.25 0l0 -2.625z" fill-rule="nonzero"/><path fill="#c82506" d="m82.00775 32.864655l-0.71875 0.453125q-0.9375 -1.25 -2.5625 -1.25q-1.296875 0 -2.15625 0.84375q-0.859375 0.828125 -0.859375 2.015625q0 0.78125 0.390625 1.46875q0.40625 0.671875 1.09375 1.046875q0.6875 0.375 1.53125 0.375q1.5625 0 2.5625 -1.234375l0.71875 0.46875q-0.515625 0.765625 -1.375 1.1875q-0.84375 0.421875 -1.9375 0.421875q-1.6875 0 -2.796875 -1.0625q-1.09375 -1.078125 -1.09375 -2.609375q0 -1.03125 0.515625 -1.90625q0.515625 -0.890625 1.421875 -1.375q0.90625 -0.5 2.015625 -0.5q0.703125 0 1.359375 0.21875q0.65625 0.21875 1.109375 0.5625q0.453125 0.34375 0.78125 0.875zm5.09169 -1.65625q1.640625 0 2.71875 1.1875q0.96875 1.078125 0.96875 2.5625q0 1.484375 -1.03125 2.59375q-1.03125 1.109375 -2.65625 1.109375q-1.625 0 -2.65625 -1.109375q-1.03125 -1.109375 -1.03125 -2.59375q0 -1.46875 0.984375 -2.5625q1.078125 -1.1875 2.703125 -1.1875zm0 0.890625q-1.125 0 -1.9375 0.84375q-0.8125 0.84375 -0.8125 2.03125q0 0.765625 0.359375 1.4375q0.375 0.65625 1.0 1.015625q0.640625 0.359375 1.390625 0.359375q0.765625 0 1.390625 -0.359375q0.640625 -0.359375 1.0 -1.015625q0.375 -0.671875 0.375 -1.4375q0 -1.1875 -0.8125 -2.03125q-0.8125 -0.84375 -1.953125 -0.84375zm5.383316 -0.703125l0.890625 0l0 1.21875q0.484375 -0.671875 0.984375 -0.984375q0.6875 -0.421875 1.453125 -0.421875q0.515625 0 0.96875 0.203125q0.46875 0.203125 0.75 0.546875q0.296875 0.328125 0.515625 0.953125q0.453125 -0.828125 1.140625 -1.265625q0.6875 -0.4375 1.46875 -0.4375q0.734375 0 1.296875 0.375q0.5625 0.375 0.828125 1.046875q0.28125 0.65625 0.28125 1.984375l0 3.859375l-0.921875 0l0 -3.859375q0 -1.140625 -0.171875 -1.5625q-0.15625 -0.4375 -0.5625 -0.6875q-0.390625 -0.265625 -0.9375 -0.265625q-0.65625 0 -1.203125 0.390625q-0.546875 0.390625 -0.8125 1.046875q-0.25 0.640625 -0.25 2.171875l0 2.765625l-0.90625 0l0 -3.625q0 -1.28125 -0.15625 -1.734375q-0.15625 -0.46875 -0.5625 -0.734375q-0.390625 -0.28125 -0.9375 -0.28125q-0.625 0 -1.1875 0.390625q-0.546875 0.375 -0.8125 1.015625q-0.265625 0.640625 -0.265625 1.96875l0 3.0l-0.890625 0l0 -7.078125zm12.501633 0l0.890625 0l0 1.21875q0.484375 -0.671875 0.984375 -0.984375q0.6875 -0.421875 1.453125 -0.421875q0.515625 0 0.96875 0.203125q0.46875 0.203125 0.75 0.546875q0.296875 0.328125 0.515625 0.953125q0.453125 -0.828125 1.140625 -1.265625q0.6875 -0.4375 1.46875 -0.4375q0.734375 0 1.296875 0.375q0.5625 0.375 0.828125 1.046875q0.28125 0.65625 0.28125 1.984375l0 3.859375l-0.921875 0l0 -3.859375q0 -1.140625 -0.171875 -1.5625q-0.15625 -0.4375 -0.5625 -0.6875q-0.390625 -0.265625 -0.9375 -0.265625q-0.65625 0 -1.203125 0.390625q-0.546875 0.390625 -0.8125 1.046875q-0.25 0.640625 -0.25 2.171875l0 2.765625l-0.90625 0l0 -3.625q0 -1.28125 -0.15625 -1.734375q-0.15625 -0.46875 -0.5625 -0.734375q-0.390625 -0.28125 -0.9375 -0.28125q-0.625 0 -1.1875 0.390625q-0.546875 0.375 -0.8125 1.015625q-0.265625 0.640625 -0.265625 1.96875l0 3.0l-0.890625 0l0 -7.078125zm19.548508 0l0 7.078125l-0.890625 0l0 -1.21875q-0.578125 0.703125 -1.296875 1.0625q-0.703125 0.34375 -1.546875 0.34375q-1.5 0 -2.5625 -1.09375q-1.0625 -1.09375 -1.0625 -2.65625q0 -1.53125 1.0625 -2.609375q1.078125 -1.09375 2.59375 -1.09375q0.859375 0 1.5625 0.375q0.71875 0.375 1.25 1.109375l0 -1.296875l0.890625 0zm-3.640625 0.6875q-0.765625 0 -1.40625 0.375q-0.640625 0.375 -1.03125 1.0625q-0.375 0.671875 -0.375 1.421875q0 0.75 0.375 1.4375q0.390625 0.6875 1.03125 1.0625q0.65625 0.375 1.40625 0.375q0.75 0 1.421875 -0.375q0.671875 -0.375 1.03125 -1.015625q0.359375 -0.640625 0.359375 -1.453125q0 -1.234375 -0.8125 -2.0625q-0.8125 -0.828125 -2.0 -0.828125zm5.6982727 -0.6875l0.90625 0l0 1.265625q0.546875 -0.734375 1.203125 -1.09375q0.671875 -0.359375 1.453125 -0.359375q0.796875 0 1.40625 0.40625q0.625 0.40625 0.90625 1.09375q0.296875 0.671875 0.296875 2.125l0 3.640625l-0.90625 0l0 -3.375q0 -1.21875 -0.09375 -1.640625q-0.171875 -0.703125 -0.625 -1.046875q-0.4375 -0.359375 -1.15625 -0.359375q-0.828125 0 -1.484375 0.546875q-0.65625 0.546875 -0.859375 1.359375q-0.140625 0.515625 -0.140625 1.921875l0 2.59375l-0.90625 0l0 -7.078125zm15.190842 -2.734375l0 9.8125l-0.890625 0l0 -1.21875q-0.578125 0.703125 -1.296875 1.0625q-0.703125 0.34375 -1.546875 0.34375q-1.5 0 -2.578125 -1.09375q-1.0625 -1.09375 -1.0625 -2.65625q0 -1.53125 1.078125 -2.609375q1.078125 -1.09375 2.578125 -1.09375q0.875 0 1.578125 0.375q0.71875 0.375 1.25 1.109375l0 -4.03125l0.890625 0zm-3.640625 3.421875q-0.765625 0 -1.40625 0.375q-0.640625 0.375 -1.03125 1.0625q-0.375 0.671875 -0.375 1.421875q0 0.75 0.375 1.4375q0.390625 0.6875 1.03125 1.0625q0.65625 0.375 1.40625 0.375q0.75 0 1.40625 -0.375q0.671875 -0.375 1.03125 -1.015625q0.375 -0.640625 0.375 -1.453125q0 -1.234375 -0.8125 -2.0625q-0.8125 -0.828125 -2.0 -0.828125z" fill-rule="nonzero"/><path fill="#000000" fill-opacity="0.0" d="m286.1391 193.8189l0 45.35434" fill-rule="evenodd"/><path stroke="#000000" stroke-width="2.6666666666666665" stroke-miterlimit="400.0" stroke-linecap="butt" d="m286.1391 193.8189l0 29.35434" fill-rule="evenodd"/><path fill="#000000" stroke="#000000" stroke-width="2.6666666666666665" stroke-linecap="butt" d="m281.7345 223.17323l4.404602 12.101593l4.4046326 -12.101593z" fill-rule="evenodd"/><path fill="#000000" fill-opacity="0.0" d="m168.46414 193.90202l109.85828 0l0 37.511826l-109.85828 0z" fill-rule="evenodd"/><path fill="#c82506" d="m184.29594 202.09856l-0.984375 0q0.265625 -1.171875 1.015625 -1.8125q0.765625 -0.640625 1.796875 -0.640625q0.75 0 1.390625 0.34375q0.65625 0.34375 1.0 0.921875q0.359375 0.578125 0.359375 1.203125q0 1.234375 -1.234375 1.96875q0.703125 0.265625 1.140625 0.8125q0.625 0.765625 0.625 1.703125q0 0.8125 -0.4375 1.5625q-0.421875 0.734375 -1.171875 1.140625q-0.734375 0.390625 -1.65625 0.390625q-1.234375 0 -2.0625 -0.703125q-0.828125 -0.71875 -1.078125 -2.09375l0.9375 0q0.25 0.921875 0.703125 1.34375q0.59375 0.53125 1.515625 0.53125q1.046875 0 1.671875 -0.625q0.625 -0.625 0.625 -1.46875q0 -0.5625 -0.3125 -1.046875q-0.3125 -0.484375 -0.84375 -0.734375q-0.53125 -0.25 -1.640625 -0.3125l0 -0.875q0.65625 0 1.1875 -0.21875q0.546875 -0.234375 0.78125 -0.59375q0.25 -0.359375 0.25 -0.78125q0 -0.625 -0.5 -1.078125q-0.484375 -0.46875 -1.25 -0.46875q-0.625 0 -1.078125 0.359375q-0.4375 0.34375 -0.75 1.171875zm7.636444 5.921875q0.328125 0 0.5625 0.234375q0.234375 0.234375 0.234375 0.578125q0 0.328125 -0.234375 0.578125q-0.234375 0.234375 -0.5625 0.234375q-0.328125 0 -0.5625 -0.234375q-0.234375 -0.25 -0.234375 -0.578125q0 -0.34375 0.234375 -0.578125q0.234375 -0.234375 0.5625 -0.234375zm12.473694 -5.640625l0.921875 0l0 5.640625q0 1.484375 -0.265625 2.171875q-0.359375 0.984375 -1.25 1.5q-0.875 0.53125 -2.109375 0.53125q-0.921875 0 -1.65625 -0.25q-0.71875 -0.25 -1.171875 -0.6875q-0.453125 -0.4375 -0.84375 -1.265625l1.0 0q0.40625 0.703125 1.03125 1.03125q0.640625 0.34375 1.59375 0.34375q0.921875 0 1.5625 -0.34375q0.640625 -0.34375 0.90625 -0.875q0.28125 -0.53125 0.28125 -1.703125l0 -0.359375q-0.515625 0.640625 -1.265625 1.0q-0.734375 0.34375 -1.5625 0.34375q-0.96875 0 -1.828125 -0.484375q-0.859375 -0.484375 -1.328125 -1.296875q-0.46875 -0.828125 -0.46875 -1.8125q0 -0.984375 0.484375 -1.828125q0.484375 -0.859375 1.34375 -1.34375q0.859375 -0.5 1.828125 -0.5q0.796875 0 1.46875 0.328125q0.6875 0.328125 1.328125 1.09375l0 -1.234375zm-2.6875 0.6875q-0.765625 0 -1.4375 0.375q-0.65625 0.375 -1.046875 1.046875q-0.375 0.65625 -0.375 1.421875q0 1.171875 0.78125 1.9375q0.78125 0.75 2.03125 0.75q1.25 0 2.015625 -0.75q0.765625 -0.765625 0.765625 -1.984375q0 -0.8125 -0.359375 -1.4375q-0.34375 -0.625 -0.984375 -0.984375q-0.640625 -0.375 -1.390625 -0.375zm11.514725 4.046875l0.78125 0.390625q-0.390625 0.75 -0.890625 1.203125q-0.484375 0.453125 -1.109375 0.703125q-0.609375 0.234375 -1.390625 0.234375q-1.734375 0 -2.71875 -1.140625q-0.96875 -1.140625 -0.96875 -2.5625q0 -1.359375 0.828125 -2.40625q1.046875 -1.34375 2.8125 -1.34375q1.8125 0 2.890625 1.375q0.765625 0.96875 0.78125 2.421875l-6.375 0q0.03125 1.234375 0.78125 2.03125q0.765625 0.78125 1.890625 0.78125q0.546875 0 1.046875 -0.1875q0.515625 -0.1875 0.875 -0.5q0.359375 -0.3125 0.765625 -1.0zm0 -1.90625q-0.171875 -0.734375 -0.53125 -1.171875q-0.34375 -0.4375 -0.921875 -0.703125q-0.5625 -0.265625 -1.1875 -0.265625q-1.046875 0 -1.796875 0.671875q-0.546875 0.484375 -0.828125 1.46875l5.265625 0zm3.5057373 -5.453125l0.921875 0l0 2.625l1.4375 0l0 0.78125l-1.4375 0l0 6.296875l-0.921875 0l0 -6.296875l-1.25 0l0 -0.78125l1.25 0l0 -2.625zm6.612686 1.0625l0 -0.9375l5.25 0l0 0.9375l-2.140625 0l0 8.640625l-0.96875 0l0 -8.640625l-2.140625 0zm5.5186157 1.5625l0.9375 0l2.15625 5.140625l2.28125 -5.140625l0.15625 0l2.265625 5.140625l2.203125 -5.140625l0.953125 0l-3.0625 7.078125l-0.1875 0l-2.25 -5.0625l-2.265625 5.0625l-0.171875 0l-3.015625 -7.078125zm12.342026 -2.921875q0.3125 0 0.53125 0.234375q0.234375 0.21875 0.234375 0.53125q0 0.296875 -0.234375 0.515625q-0.21875 0.21875 -0.53125 0.21875q-0.296875 0 -0.53125 -0.21875q-0.21875 -0.21875 -0.21875 -0.515625q0 -0.3125 0.21875 -0.53125q0.234375 -0.234375 0.53125 -0.234375zm-0.453125 2.921875l0.921875 0l0 7.078125l-0.921875 0l0 -7.078125zm3.6057281 -2.625l0.921875 0l0 2.625l1.4375 0l0 0.78125l-1.4375 0l0 6.296875l-0.921875 0l0 -6.296875l-1.25 0l0 -0.78125l1.25 0l0 -2.625zm4.516464 0l0.921875 0l0 2.625l1.4375 0l0 0.78125l-1.4375 0l0 6.296875l-0.921875 0l0 -6.296875l-1.25 0l0 -0.78125l1.25 0l0 -2.625zm9.6727295 7.359375l0.78125 0.390625q-0.390625 0.75 -0.890625 1.203125q-0.484375 0.453125 -1.109375 0.703125q-0.609375 0.234375 -1.3906403 0.234375q-1.734375 0 -2.71875 -1.140625q-0.96875 -1.140625 -0.96875 -2.5625q0 -1.359375 0.828125 -2.40625q1.046875 -1.34375 2.8125 -1.34375q1.8125153 0 2.8906403 1.375q0.765625 0.96875 0.78125 2.421875l-6.3750153 0q0.03125 1.234375 0.78125 2.03125q0.765625 0.78125 1.890625 0.78125q0.54689026 0 1.0468903 -0.1875q0.515625 -0.1875 0.875 -0.5q0.359375 -0.3125 0.765625 -1.0zm0 -1.90625q-0.171875 -0.734375 -0.53125 -1.171875q-0.34375 -0.4375 -0.921875 -0.703125q-0.5625 -0.265625 -1.1875153 -0.265625q-1.046875 0 -1.796875 0.671875q-0.546875 0.484375 -0.828125 1.46875l5.2656403 0zm2.3651123 -2.828125l0.921875 0l0 1.03125q0.421875 -0.609375 0.875 -0.90625q0.46875 -0.3125 0.96875 -0.3125q0.375 0 0.8125 0.25l-0.46875 0.765625q-0.296875 -0.125 -0.484375 -0.125q-0.453125 0 -0.890625 0.375q-0.421875 0.375 -0.640625 1.15625q-0.171875 0.609375 -0.171875 2.453125l0 2.390625l-0.921875 0l0 -7.078125z" fill-rule="nonzero"/><path fill="#c82506" d="m195.44246 215.45793q0.3125 0 0.53125 0.234375q0.234375 0.21875 0.234375 0.53125q0 0.296875 -0.234375 0.515625q-0.21875 0.21875 -0.53125 0.21875q-0.296875 0 -0.53125 -0.21875q-0.21875 -0.21875 -0.21875 -0.515625q0 -0.3125 0.21875 -0.53125q0.234375 -0.234375 0.53125 -0.234375zm-0.453125 2.921875l0.921875 0l0 7.078125l-0.921875 0l0 -7.078125zm2.8088531 0l0.90625 0l0 1.265625q0.546875 -0.734375 1.203125 -1.09375q0.671875 -0.359375 1.453125 -0.359375q0.796875 0 1.40625 0.40625q0.625 0.40625 0.90625 1.09375q0.296875 0.671875 0.296875 2.125l0 3.640625l-0.90625 0l0 -3.375q0 -1.21875 -0.09375 -1.640625q-0.171875 -0.703125 -0.625 -1.046875q-0.4375 -0.359375 -1.15625 -0.359375q-0.828125 0 -1.484375 0.546875q-0.65625 0.546875 -0.859375 1.359375q-0.140625 0.515625 -0.140625 1.921875l0 2.59375l-0.90625 0l0 -7.078125zm8.925217 -2.625l0.921875 0l0 2.625l1.4375 0l0 0.78125l-1.4375 0l0 6.296875l-0.921875 0l0 -6.296875l-1.25 0l0 -0.78125l1.25 0l0 -2.625zm9.672714 7.359375l0.78125 0.390625q-0.390625 0.75 -0.890625 1.203125q-0.484375 0.453125 -1.109375 0.703125q-0.609375 0.234375 -1.390625 0.234375q-1.734375 0 -2.71875 -1.140625q-0.96875 -1.140625 -0.96875 -2.5625q0 -1.359375 0.828125 -2.40625q1.046875 -1.34375 2.8125 -1.34375q1.8125 0 2.890625 1.375q0.765625 0.96875 0.78125 2.421875l-6.375 0q0.03125 1.234375 0.78125 2.03125q0.765625 0.78125 1.890625 0.78125q0.546875 0 1.046875 -0.1875q0.515625 -0.1875 0.875 -0.5q0.359375 -0.3125 0.765625 -1.0zm0 -1.90625q-0.171875 -0.734375 -0.53125 -1.171875q-0.34375 -0.4375 -0.921875 -0.703125q-0.5625 -0.265625 -1.1875 -0.265625q-1.046875 0 -1.796875 0.671875q-0.546875 0.484375 -0.828125 1.46875l5.265625 0zm2.3651123 -2.828125l0.921875 0l0 1.03125q0.421875 -0.609375 0.875 -0.90625q0.46875 -0.3125 0.96875 -0.3125q0.375 0 0.8125 0.25l-0.46875 0.765625q-0.296875 -0.125 -0.484375 -0.125q-0.453125 0 -0.890625 0.375q-0.421875 0.375 -0.640625 1.15625q-0.171875 0.609375 -0.171875 2.453125l0 2.390625l-0.921875 0l0 -7.078125zm7.274475 -2.734375l0 0.890625q-0.515625 -0.21875 -0.859375 -0.21875q-0.265625 0 -0.453125 0.109375q-0.171875 0.109375 -0.21875 0.25q-0.046875 0.140625 -0.046875 0.75l0 0.953125l1.484375 0l0 0.78125l-1.484375 0l0 6.296875l-0.921875 0l0 -6.296875l-0.921875 0l0 -0.78125l0.921875 0l0 -1.109375q0 -0.765625 0.140625 -1.078125q0.140625 -0.328125 0.46875 -0.53125q0.34375 -0.203125 0.828125 -0.203125q0.4375 0 1.0625 0.1875zm8.30957 2.734375l0 7.078125l-0.890625 0l0 -1.21875q-0.578125 0.703125 -1.296875 1.0625q-0.703125 0.34375 -1.546875 0.34375q-1.5 0 -2.5625 -1.09375q-1.0625 -1.09375 -1.0625 -2.65625q0 -1.53125 1.0625 -2.609375q1.078125 -1.09375 2.59375 -1.09375q0.859375 0 1.5625 0.375q0.71875 0.375 1.25 1.109375l0 -1.296875l0.890625 0zm-3.640625 0.6875q-0.765625 0 -1.40625 0.375q-0.640625 0.375 -1.03125 1.0625q-0.375 0.671875 -0.375 1.421875q0 0.75 0.375 1.4375q0.390625 0.6875 1.03125 1.0625q0.65625 0.375 1.40625 0.375q0.75 0 1.421875 -0.375q0.671875 -0.375 1.03125 -1.015625q0.359375 -0.640625 0.359375 -1.453125q0 -1.234375 -0.8125 -2.0625q-0.8125 -0.828125 -2.0 -0.828125zm12.573273 0.78125l-0.71875 0.453125q-0.9375 -1.25 -2.5625 -1.25q-1.296875 0 -2.15625 0.84375q-0.859375 0.828125 -0.859375 2.015625q0 0.78125 0.390625 1.46875q0.40625 0.671875 1.09375 1.046875q0.6875 0.375 1.53125 0.375q1.5625 0 2.5625 -1.234375l0.71875 0.46875q-0.515625 0.765625 -1.375 1.1875q-0.84375 0.421875 -1.9375 0.421875q-1.6875 0 -2.796875 -1.0625q-1.09375 -1.078125 -1.09375 -2.609375q0 -1.03125 0.515625 -1.90625q0.515625 -0.890625 1.421875 -1.375q0.90625 -0.5 2.015625 -0.5q0.703125 0 1.359375 0.21875q0.65625 0.21875 1.109375 0.5625q0.453125 0.34375 0.78125 0.875zm7.701065 3.265625l0.78125 0.390625q-0.390625 0.75 -0.890625 1.203125q-0.484375 0.453125 -1.109375 0.703125q-0.609375 0.234375 -1.390625 0.234375q-1.734375 0 -2.71875 -1.140625q-0.96875 -1.140625 -0.96875 -2.5625q0 -1.359375 0.828125 -2.40625q1.046875 -1.34375 2.8125 -1.34375q1.8125 0 2.890625 1.375q0.765625 0.96875 0.78125 2.421875l-6.375 0q0.03125 1.234375 0.78125 2.03125q0.765625 0.78125 1.890625 0.78125q0.546875 0 1.046875 -0.1875q0.515625 -0.1875 0.875 -0.5q0.359375 -0.3125 0.765625 -1.0zm0 -1.90625q-0.171875 -0.734375 -0.53125 -1.171875q-0.34375 -0.4375 -0.921875 -0.703125q-0.5625 -0.265625 -1.1875 -0.265625q-1.046875 0 -1.796875 0.671875q-0.546875 0.484375 -0.828125 1.46875l5.265625 0z" fill-rule="nonzero"/><path fill="#000000" fill-opacity="0.0" d="m343.0971 241.58792l0 -46.89763" fill-rule="evenodd"/><path stroke="#000000" stroke-width="2.6666666666666665" stroke-miterlimit="400.0" stroke-linecap="butt" d="m343.0971 241.58792l0 -30.897629" fill-rule="evenodd"/><path fill="#000000" stroke="#000000" stroke-width="2.6666666666666665" stroke-linecap="butt" d="m347.50174 210.69029l-4.4046326 -12.101593l-4.404602 12.101593z" fill-rule="evenodd"/><path fill="#000000" fill-opacity="0.0" d="m350.18115 193.9029l122.61902 0l0 37.505905l-122.61902 0z" fill-rule="evenodd"/><path fill="#c82506" d="m366.81433 199.64334l0.203125 0l0 6.671875l1.15625 0l0 0.921875l-1.15625 0l0 2.21875l-0.96875 0l0 -2.21875l-4.5625 0l5.328125 -7.59375zm-0.765625 6.671875l0 -3.984375l-2.8125 3.984375l2.8125 0zm4.495819 1.703125q0.328125 0 0.5625 0.234375q0.234375 0.234375 0.234375 0.578125q0 0.328125 -0.234375 0.578125q-0.234375 0.234375 -0.5625 0.234375q-0.328125 0 -0.5625 -0.234375q-0.234375 -0.25 -0.234375 -0.578125q0 -0.34375 0.234375 -0.578125q0.234375 -0.234375 0.5625 -0.234375zm9.726166 -5.640625l0.921875 0l0 1.03125q0.421875 -0.609375 0.875 -0.90625q0.46875 -0.3125 0.96875 -0.3125q0.375 0 0.8125 0.25l-0.46875 0.765625q-0.296875 -0.125 -0.484375 -0.125q-0.453125 0 -0.890625 0.375q-0.421875 0.375 -0.640625 1.15625q-0.171875 0.609375 -0.171875 2.453125l0 2.390625l-0.921875 0l0 -7.078125zm10.305725 4.734375l0.78125 0.390625q-0.390625 0.75 -0.890625 1.203125q-0.484375 0.453125 -1.109375 0.703125q-0.609375 0.234375 -1.390625 0.234375q-1.734375 0 -2.71875 -1.140625q-0.96875 -1.140625 -0.96875 -2.5625q0 -1.359375 0.828125 -2.40625q1.046875 -1.34375 2.8125 -1.34375q1.8125 0 2.890625 1.375q0.765625 0.96875 0.78125 2.421875l-6.375 0q0.03125 1.234375 0.78125 2.03125q0.765625 0.78125 1.890625 0.78125q0.546875 0 1.046875 -0.1875q0.515625 -0.1875 0.875 -0.5q0.359375 -0.3125 0.765625 -1.0zm0 -1.90625q-0.171875 -0.734375 -0.53125 -1.171875q-0.34375 -0.4375 -0.921875 -0.703125q-0.5625 -0.265625 -1.1875 -0.265625q-1.046875 0 -1.796875 0.671875q-0.546875 0.484375 -0.828125 1.46875l5.265625 0zm3.5057373 -5.453125l0.921875 0l0 2.625l1.4375 0l0 0.78125l-1.4375 0l0 6.296875l-0.921875 0l0 -6.296875l-1.25 0l0 -0.78125l1.25 0l0 -2.625zm3.5946045 2.625l0.921875 0l0 3.296875q0 1.21875 0.140625 1.671875q0.1875 0.65625 0.734375 1.03125q0.546875 0.375 1.3125 0.375q0.765625 0 1.296875 -0.359375q0.53125 -0.375 0.734375 -0.96875q0.125 -0.421875 0.125 -1.75l0 -3.296875l0.9375 0l0 3.46875q0 1.46875 -0.34375 2.21875q-0.34375 0.734375 -1.03125 1.15625q-0.6875 0.421875 -1.71875 0.421875q-1.03125 0 -1.734375 -0.421875q-0.6875 -0.421875 -1.03125 -1.171875q-0.34375 -0.75 -0.34375 -2.265625l0 -3.40625zm7.883545 0l0.921875 0l0 1.03125q0.421875 -0.609375 0.875 -0.90625q0.46875 -0.3125 0.96875 -0.3125q0.375 0 0.8125 0.25l-0.46875 0.765625q-0.296875 -0.125 -0.484375 -0.125q-0.453125 0 -0.890625 0.375q-0.421875 0.375 -0.640625 1.15625q-0.171875 0.609375 -0.171875 2.453125l0 2.390625l-0.921875 0l0 -7.078125zm4.3526 0l0.90625 0l0 1.265625q0.546875 -0.734375 1.203125 -1.09375q0.671875 -0.359375 1.453125 -0.359375q0.796875 0 1.40625 0.40625q0.625 0.40625 0.90625 1.09375q0.296875 0.671875 0.296875 2.125l0 3.640625l-0.90625 0l0 -3.375q0 -1.21875 -0.09375 -1.640625q-0.171875 -0.703125 -0.625 -1.046875q-0.4375 -0.359375 -1.15625 -0.359375q-0.828125 0 -1.484375 0.546875q-0.65625 0.546875 -0.859375 1.359375q-0.140625 0.515625 -0.140625 1.921875l0 2.59375l-0.90625 0l0 -7.078125zm11.021454 -1.5625l0 -0.9375l5.25 0l0 0.9375l-2.140625 0l0 8.640625l-0.96875 0l0 -8.640625l-2.140625 0zm5.5186157 1.5625l0.9375 0l2.15625 5.140625l2.28125 -5.140625l0.15625 0l2.265625 5.140625l2.203125 -5.140625l0.953125 0l-3.0625 7.078125l-0.1875 0l-2.25 -5.0625l-2.265625 5.0625l-0.171875 0l-3.015625 -7.078125zm12.3420105 -2.921875q0.3125 0 0.53125 0.234375q0.234375 0.21875 0.234375 0.53125q0 0.296875 -0.234375 0.515625q-0.21875 0.21875 -0.53125 0.21875q-0.296875 0 -0.53125 -0.21875q-0.21875 -0.21875 -0.21875 -0.515625q0 -0.3125 0.21875 -0.53125q0.234375 -0.234375 0.53125 -0.234375zm-0.453125 2.921875l0.921875 0l0 7.078125l-0.921875 0l0 -7.078125zm3.6057434 -2.625l0.921875 0l0 2.625l1.4375 0l0 0.78125l-1.4375 0l0 6.296875l-0.921875 0l0 -6.296875l-1.25 0l0 -0.78125l1.25 0l0 -2.625zm4.516449 0l0.921875 0l0 2.625l1.4375 0l0 0.78125l-1.4375 0l0 6.296875l-0.921875 0l0 -6.296875l-1.25 0l0 -0.78125l1.25 0l0 -2.625zm9.6727295 7.359375l0.78125 0.390625q-0.390625 0.75 -0.890625 1.203125q-0.484375 0.453125 -1.109375 0.703125q-0.609375 0.234375 -1.390625 0.234375q-1.734375 0 -2.71875 -1.140625q-0.96875 -1.140625 -0.96875 -2.5625q0 -1.359375 0.828125 -2.40625q1.046875 -1.34375 2.8125 -1.34375q1.8125 0 2.890625 1.375q0.765625 0.96875 0.78125 2.421875l-6.375 0q0.03125 1.234375 0.78125 2.03125q0.765625 0.78125 1.890625 0.78125q0.546875 0 1.046875 -0.1875q0.515625 -0.1875 0.875 -0.5q0.359375 -0.3125 0.765625 -1.0zm0 -1.90625q-0.171875 -0.734375 -0.53125 -1.171875q-0.34375 -0.4375 -0.921875 -0.703125q-0.5625 -0.265625 -1.1875 -0.265625q-1.046875 0 -1.796875 0.671875q-0.546875 0.484375 -0.828125 1.46875l5.265625 0zm2.3651123 -2.828125l0.921875 0l0 1.03125q0.421875 -0.609375 0.875 -0.90625q0.46875 -0.3125 0.96875 -0.3125q0.375 0 0.8125 0.25l-0.46875 0.765625q-0.296875 -0.125 -0.484375 -0.125q-0.453125 0 -0.890625 0.375q-0.421875 0.375 -0.640625 1.15625q-0.171875 0.609375 -0.171875 2.453125l0 2.390625l-0.921875 0l0 -7.078125z" fill-rule="nonzero"/><path fill="#c82506" d="m383.53983 215.45584q0.3125 0 0.53125 0.234375q0.234375 0.21875 0.234375 0.53125q0 0.296875 -0.234375 0.515625q-0.21875 0.21875 -0.53125 0.21875q-0.296875 0 -0.53125 -0.21875q-0.21875 -0.21875 -0.21875 -0.515625q0 -0.3125 0.21875 -0.53125q0.234375 -0.234375 0.53125 -0.234375zm-0.453125 2.921875l0.921875 0l0 7.078125l-0.921875 0l0 -7.078125zm2.8088684 0l0.90625 0l0 1.265625q0.546875 -0.734375 1.203125 -1.09375q0.671875 -0.359375 1.453125 -0.359375q0.796875 0 1.40625 0.40625q0.625 0.40625 0.90625 1.09375q0.296875 0.671875 0.296875 2.125l0 3.640625l-0.90625 0l0 -3.375q0 -1.21875 -0.09375 -1.640625q-0.171875 -0.703125 -0.625 -1.046875q-0.4375 -0.359375 -1.15625 -0.359375q-0.828125 0 -1.484375 0.546875q-0.65625 0.546875 -0.859375 1.359375q-0.140625 0.515625 -0.140625 1.921875l0 2.59375l-0.90625 0l0 -7.078125zm8.925201 -2.625l0.921875 0l0 2.625l1.4375 0l0 0.78125l-1.4375 0l0 6.296875l-0.921875 0l0 -6.296875l-1.25 0l0 -0.78125l1.25 0l0 -2.625zm9.6727295 7.359375l0.78125 0.390625q-0.390625 0.75 -0.890625 1.203125q-0.484375 0.453125 -1.109375 0.703125q-0.609375 0.234375 -1.390625 0.234375q-1.734375 0 -2.71875 -1.140625q-0.96875 -1.140625 -0.96875 -2.5625q0 -1.359375 0.828125 -2.40625q1.046875 -1.34375 2.8125 -1.34375q1.8125 0 2.890625 1.375q0.765625 0.96875 0.78125 2.421875l-6.375 0q0.03125 1.234375 0.78125 2.03125q0.765625 0.78125 1.890625 0.78125q0.546875 0 1.046875 -0.1875q0.515625 -0.1875 0.875 -0.5q0.359375 -0.3125 0.765625 -1.0zm0 -1.90625q-0.171875 -0.734375 -0.53125 -1.171875q-0.34375 -0.4375 -0.921875 -0.703125q-0.5625 -0.265625 -1.1875 -0.265625q-1.046875 0 -1.796875 0.671875q-0.546875 0.484375 -0.828125 1.46875l5.265625 0zm2.3651123 -2.828125l0.921875 0l0 1.03125q0.421875 -0.609375 0.875 -0.90625q0.46875 -0.3125 0.96875 -0.3125q0.375 0 0.8125 0.25l-0.46875 0.765625q-0.296875 -0.125 -0.484375 -0.125q-0.453125 0 -0.890625 0.375q-0.421875 0.375 -0.640625 1.15625q-0.171875 0.609375 -0.171875 2.453125l0 2.390625l-0.921875 0l0 -7.078125zm7.274475 -2.734375l0 0.890625q-0.515625 -0.21875 -0.859375 -0.21875q-0.265625 0 -0.453125 0.109375q-0.171875 0.109375 -0.21875 0.25q-0.046875 0.140625 -0.046875 0.75l0 0.953125l1.484375 0l0 0.78125l-1.484375 0l0 6.296875l-0.921875 0l0 -6.296875l-0.921875 0l0 -0.78125l0.921875 0l0 -1.109375q0 -0.765625 0.140625 -1.078125q0.140625 -0.328125 0.46875 -0.53125q0.34375 -0.203125 0.828125 -0.203125q0.4375 0 1.0625 0.1875zm8.30957 2.734375l0 7.078125l-0.890625 0l0 -1.21875q-0.578125 0.703125 -1.296875 1.0625q-0.703125 0.34375 -1.546875 0.34375q-1.5 0 -2.5625 -1.09375q-1.0625 -1.09375 -1.0625 -2.65625q0 -1.53125 1.0625 -2.609375q1.078125 -1.09375 2.59375 -1.09375q0.859375 0 1.5625 0.375q0.71875 0.375 1.25 1.109375l0 -1.296875l0.890625 0zm-3.640625 0.6875q-0.765625 0 -1.40625 0.375q-0.640625 0.375 -1.03125 1.0625q-0.375 0.671875 -0.375 1.421875q0 0.75 0.375 1.4375q0.390625 0.6875 1.03125 1.0625q0.65625 0.375 1.40625 0.375q0.75 0 1.421875 -0.375q0.671875 -0.375 1.03125 -1.015625q0.359375 -0.640625 0.359375 -1.453125q0 -1.234375 -0.8125 -2.0625q-0.8125 -0.828125 -2.0 -0.828125zm12.573273 0.78125l-0.71875 0.453125q-0.9375 -1.25 -2.5625 -1.25q-1.296875 0 -2.15625 0.84375q-0.859375 0.828125 -0.859375 2.015625q0 0.78125 0.390625 1.46875q0.40625 0.671875 1.09375 1.046875q0.6875 0.375 1.53125 0.375q1.5625 0 2.5625 -1.234375l0.71875 0.46875q-0.515625 0.765625 -1.375 1.1875q-0.84375 0.421875 -1.9375 0.421875q-1.6875 0 -2.796875 -1.0625q-1.09375 -1.078125 -1.09375 -2.609375q0 -1.03125 0.515625 -1.90625q0.515625 -0.890625 1.421875 -1.375q0.90625 -0.5 2.015625 -0.5q0.703125 0 1.359375 0.21875q0.65625 0.21875 1.109375 0.5625q0.453125 0.34375 0.78125 0.875zm7.70105 3.265625l0.78125 0.390625q-0.390625 0.75 -0.890625 1.203125q-0.484375 0.453125 -1.109375 0.703125q-0.609375 0.234375 -1.390625 0.234375q-1.734375 0 -2.71875 -1.140625q-0.96875 -1.140625 -0.96875 -2.5625q0 -1.359375 0.828125 -2.40625q1.046875 -1.34375 2.8125 -1.34375q1.8125 0 2.890625 1.375q0.765625 0.96875 0.78125 2.421875l-6.375 0q0.03125 1.234375 0.78125 2.03125q0.765625 0.78125 1.890625 0.78125q0.546875 0 1.046875 -0.1875q0.515625 -0.1875 0.875 -0.5q0.359375 -0.3125 0.765625 -1.0zm0 -1.90625q-0.171875 -0.734375 -0.53125 -1.171875q-0.34375 -0.4375 -0.921875 -0.703125q-0.5625 -0.265625 -1.1875 -0.265625q-1.046875 0 -1.796875 0.671875q-0.546875 0.484375 -0.828125 1.46875l5.265625 0z" fill-rule="nonzero"/><path fill="#000000" fill-opacity="0.0" d="m55.750896 118.38771l79.30708 0l0 21.763779l-79.30708 0z" fill-rule="evenodd"/><path fill="#c82506" d="m73.47284 124.49148l0 0.921875l-3.40625 0l-0.46875 2.6093674q0.625 -0.18749237 1.125 -0.18749237q1.3125 0 2.15625 0.8749924q0.84375 0.875 0.84375 2.234375q0 0.953125 -0.4375 1.75q-0.4375 0.78125 -1.1875 1.203125q-0.734375 0.40625 -1.703125 0.40625q-1.171875 0 -1.96875 -0.703125q-0.796875 -0.71875 -0.953125 -1.84375l0.96875 0q0.125 0.546875 0.375 0.890625q0.265625 0.34375 0.703125 0.5625q0.453125 0.203125 0.921875 0.203125q0.953125 0 1.625 -0.703125q0.671875 -0.71875 0.671875 -1.796875q0 -0.96875 -0.609375 -1.578125q-0.609375 -0.609375 -1.625 -0.609375q-0.84375 0 -2.0625 0.515625l0.890625 -4.7499924l4.140625 0zm2.855194 8.140617q0.328125 0 0.5625 0.234375q0.234375 0.234375 0.234375 0.578125q0 0.328125 -0.234375 0.578125q-0.234375 0.234375 -0.5625 0.234375q-0.328125 0 -0.5625 -0.234375q-0.234375 -0.25 -0.234375 -0.578125q0 -0.34375 0.234375 -0.578125q0.234375 -0.234375 0.5625 -0.234375zm11.098694 -8.374992q2.171875 0 3.625 1.453125q1.46875 1.453125 1.46875 3.5624924q0 2.109375 -1.46875 3.578125q-1.453125 1.453125 -3.546875 1.453125q-2.140625 0 -3.609375 -1.453125q-1.453125 -1.453125 -1.453125 -3.53125q0 -1.3749924 0.65625 -2.5468674q0.671875 -1.1875 1.828125 -1.84375q1.15625 -0.671875 2.5 -0.671875zm0.03125 0.9375q-1.046875 0 -2.0 0.5625q-0.953125 0.546875 -1.484375 1.484375q-0.53125 0.9374924 -0.53125 2.0781174q0 1.703125 1.171875 2.890625q1.1875 1.171875 2.84375 1.171875q1.125 0 2.0625 -0.53125q0.953125 -0.546875 1.484375 -1.484375q0.53125 -0.9375 0.53125 -2.09375q0 -1.125 -0.53125 -2.0468674q-0.53125 -0.921875 -1.5 -1.46875q-0.953125 -0.5625 -2.046875 -0.5625zm10.896515 -0.703125l4.46875 9.578117l-1.03125 0l-1.5 -3.15625l-4.125 0l-1.5 3.15625l-1.078125 0l4.53125 -9.578117l0.234375 0zm-0.125 2.03125l-1.640625 3.4687424l3.28125 0l-1.640625 -3.4687424zm5.796936 0.46875l0.921875 0l0 3.2968674q0 1.21875 0.140625 1.671875q0.1875 0.65625 0.734375 1.03125q0.546875 0.375 1.3125 0.375q0.765625 0 1.296875 -0.359375q0.53125 -0.375 0.734375 -0.96875q0.125 -0.421875 0.125 -1.75l0 -3.2968674l0.9375 0l0 3.4687424q0 1.46875 -0.34375 2.21875q-0.34375 0.734375 -1.03125 1.15625q-0.6875 0.421875 -1.71875 0.421875q-1.03125 0 -1.734375 -0.421875q-0.6875 -0.421875 -1.03125 -1.171875q-0.34375 -0.75 -0.34375 -2.265625l0 -3.4062424zm9.024185 -2.625l0.921875 0l0 2.625l1.4375 0l0 0.78125l-1.4375 0l0 6.2968674l-0.921875 0l0 -6.2968674l-1.25 0l0 -0.78125l1.25 0l0 -2.625zm3.7195892 -0.109375l0.90625 0l0 3.9999924q0.5625 -0.7343674 1.21875 -1.0937424q0.671875 -0.359375 1.4375 -0.359375q0.796875 0 1.40625 0.40625q0.625 0.40625 0.90625 1.0937424q0.296875 0.671875 0.296875 2.125l0 3.640625l-0.90625 0l0 -3.375q0 -1.21875 -0.09375 -1.640625q-0.171875 -0.703125 -0.625 -1.046875q-0.4375 -0.35936737 -1.15625 -0.35936737q-0.828125 0 -1.484375 0.5468674q-0.65625 0.546875 -0.859375 1.359375q-0.140625 0.515625 -0.140625 1.921875l0 2.59375l-0.90625 0l0 -9.812492z" fill-rule="nonzero"/><path fill="#000000" fill-opacity="0.0" d="m558.1372 137.63918l81.82678 0l0 27.748032l-81.82678 0z" fill-rule="evenodd"/><path fill="#000000" d="m570.566 146.33943l0 -1.3125l7.359375 0l0 1.3125l-2.984375 0l0 12.09375l-1.375 0l0 -12.09375l-3.0 0zm7.7247314 2.1875l1.3125 0l3.03125 7.1875l3.1875 -7.1875l0.21875 0l3.171875 7.1875l3.09375 -7.1875l1.328125 0l-4.296875 9.90625l-0.25 0l-3.15625 -7.09375l-3.171875 7.09375l-0.234375 0l-4.234375 -9.90625zm17.30127 -4.09375q0.4375 0 0.734375 0.3125q0.3125 0.3125 0.3125 0.75q0 0.4375 -0.3125 0.75q-0.296875 0.296875 -0.734375 0.296875q-0.4375 0 -0.75 -0.296875q-0.3125 -0.3125 -0.3125 -0.75q0 -0.4375 0.3125 -0.75q0.3125 -0.3125 0.75 -0.3125zm-0.640625 4.09375l1.28125 0l0 9.90625l-1.28125 0l0 -9.90625zm5.0317383 -3.6875l1.28125 0l0 3.6875l2.03125 0l0 1.09375l-2.03125 0l0 8.8125l-1.28125 0l0 -8.8125l-1.734375 0l0 -1.09375l1.734375 0l0 -3.6875zm6.3220215 0l1.28125 0l0 3.6875l2.03125 0l0 1.09375l-2.03125 0l0 8.8125l-1.28125 0l0 -8.8125l-1.734375 0l0 -1.09375l1.734375 0l0 -3.6875zm13.556335 10.3125l1.078125 0.5625q-0.53125 1.03125 -1.234375 1.671875q-0.6875 0.640625 -1.546875 0.96875q-0.859375 0.328125 -1.953125 0.328125q-2.421875 0 -3.796875 -1.578125q-1.359375 -1.59375 -1.359375 -3.59375q0 -1.890625 1.15625 -3.375q1.46875 -1.875 3.921875 -1.875q2.53125 0 4.046875 1.921875q1.078125 1.359375 1.09375 3.390625l-8.90625 0q0.03125 1.734375 1.09375 2.84375q1.0625 1.109375 2.640625 1.109375q0.75 0 1.46875 -0.265625q0.71875 -0.265625 1.21875 -0.703125q0.5 -0.4375 1.078125 -1.40625zm0 -2.671875q-0.25 -1.03125 -0.75 -1.640625q-0.484375 -0.609375 -1.28125 -0.984375q-0.796875 -0.375 -1.6875 -0.375q-1.453125 0 -2.5 0.953125q-0.765625 0.671875 -1.15625 2.046875l7.375 0zm3.2966309 -3.953125l1.296875 0l0 1.4375q0.59375 -0.84375 1.234375 -1.265625q0.65625 -0.4375 1.34375 -0.4375q0.53125 0 1.140625 0.34375l-0.671875 1.078125q-0.40625 -0.171875 -0.671875 -0.171875q-0.640625 0 -1.234375 0.53125q-0.59375 0.515625 -0.890625 1.609375q-0.25 0.84375 -0.25 3.421875l0 3.359375l-1.296875 0l0 -9.90625z" fill-rule="nonzero"/><path fill="#000000" fill-opacity="0.0" d="m415.94223 151.6038l139.77774 0" fill-rule="evenodd"/><path stroke="#000000" stroke-width="2.6666666666666665" stroke-miterlimit="400.0" stroke-linecap="butt" d="m431.94223 151.6038l107.77774 0" fill-rule="evenodd"/><path fill="#000000" stroke="#000000" stroke-width="2.6666666666666665" stroke-linecap="butt" d="m431.94223 147.19919l-12.101593 4.4046173l12.101593 4.4046173z" fill-rule="evenodd"/><path fill="#000000" stroke="#000000" stroke-width="2.6666666666666665" stroke-linecap="butt" d="m539.72 156.00842l12.101624 -4.4046173l-12.101624 -4.4046173z" fill-rule="evenodd"/><path fill="#000000" fill-opacity="0.0" d="m424.26807 116.28022l127.494934 0l0 37.505913l-127.494934 0z" fill-rule="evenodd"/><path fill="#c82506" d="m439.35934 130.02068l0.78125 0.515625l-2.578125 3.921875q0.515625 -0.1875 0.96875 -0.1875q1.140625 0 1.9375 0.828125q0.796875 0.828125 0.796875 2.03125q0 0.828125 -0.390625 1.5q-0.375 0.65625 -1.09375 1.046875q-0.703125 0.390625 -1.515625 0.390625q-0.78125 0 -1.453125 -0.375q-0.671875 -0.375 -1.0625 -1.0625q-0.390625 -0.703125 -0.390625 -1.484375q0 -0.59375 0.234375 -1.234375q0.25 -0.640625 0.859375 -1.5625l2.90625 -4.328125zm-1.046875 5.09375q-0.84375 0 -1.4375 0.59375q-0.578125 0.578125 -0.578125 1.421875q0 0.828125 0.578125 1.421875q0.59375 0.59375 1.4375 0.59375q0.828125 0 1.40625 -0.59375q0.59375 -0.59375 0.59375 -1.421875q0 -0.84375 -0.59375 -1.421875q-0.578125 -0.59375 -1.40625 -0.59375zm5.558319 3.28125q0.328125 0 0.5625 0.234375q0.234375 0.234375 0.234375 0.578125q0 0.328125 -0.234375 0.578125q-0.234375 0.234375 -0.5625 0.234375q-0.328125 0 -0.5625 -0.234375q-0.234375 -0.25 -0.234375 -0.578125q0 -0.34375 0.234375 -0.578125q0.234375 -0.234375 0.5625 -0.234375zm13.254944 -4.171875l-0.71875 0.453125q-0.9375 -1.25 -2.5625 -1.25q-1.296875 0 -2.15625 0.84375q-0.859375 0.828125 -0.859375 2.015625q0 0.78125 0.390625 1.46875q0.40625 0.671875 1.09375 1.046875q0.6875 0.375 1.53125 0.375q1.5625 0 2.5625 -1.234375l0.71875 0.46875q-0.515625 0.765625 -1.375 1.1875q-0.84375 0.421875 -1.9375 0.421875q-1.6875 0 -2.796875 -1.0625q-1.09375 -1.078125 -1.09375 -2.609375q0 -1.03125 0.515625 -1.90625q0.515625 -0.890625 1.421875 -1.375q0.90625 -0.5 2.015625 -0.5q0.703125 0 1.359375 0.21875q0.65625 0.21875 1.109375 0.5625q0.453125 0.34375 0.78125 0.875zm8.7948 -1.46875l0 7.078125l-0.890625 0l0 -1.21875q-0.578125 0.703125 -1.296875 1.0625q-0.703125 0.34375 -1.546875 0.34375q-1.5 0 -2.5625 -1.09375q-1.0625 -1.09375 -1.0625 -2.65625q0 -1.53125 1.0625 -2.609375q1.078125 -1.09375 2.59375 -1.09375q0.859375 0 1.5625 0.375q0.71875 0.375 1.25 1.109375l0 -1.296875l0.890625 0zm-3.640625 0.6875q-0.765625 0 -1.40625 0.375q-0.640625 0.375 -1.03125 1.0625q-0.375 0.671875 -0.375 1.421875q0 0.75 0.375 1.4375q0.390625 0.6875 1.03125 1.0625q0.65625 0.375 1.40625 0.375q0.75 0 1.421875 -0.375q0.671875 -0.375 1.03125 -1.015625q0.359375 -0.640625 0.359375 -1.453125q0 -1.234375 -0.8125 -2.0625q-0.8125 -0.828125 -2.0 -0.828125zm5.5576477 -3.421875l0.921875 0l0 9.8125l-0.921875 0l0 -9.8125zm2.6682434 0l0.921875 0l0 9.8125l-0.921875 0l0 -9.8125zm5.701935 1.171875l0 -0.9375l5.25 0l0 0.9375l-2.140625 0l0 8.640625l-0.96875 0l0 -8.640625l-2.140625 0zm5.5186157 1.5625l0.9375 0l2.15625 5.140625l2.28125 -5.140625l0.15625 0l2.265625 5.140625l2.203125 -5.140625l0.953125 0l-3.0625 7.078125l-0.1875 0l-2.25 -5.0625l-2.265625 5.0625l-0.171875 0l-3.015625 -7.078125zm12.342041 -2.921875q0.3125 0 0.53125 0.234375q0.234375 0.21875 0.234375 0.53125q0 0.296875 -0.234375 0.515625q-0.21875 0.21875 -0.53125 0.21875q-0.296875 0 -0.53125 -0.21875q-0.21875 -0.21875 -0.21875 -0.515625q0 -0.3125 0.21875 -0.53125q0.234375 -0.234375 0.53125 -0.234375zm-0.453125 2.921875l0.921875 0l0 7.078125l-0.921875 0l0 -7.078125zm3.605713 -2.625l0.921875 0l0 2.625l1.4375 0l0 0.78125l-1.4375 0l0 6.296875l-0.921875 0l0 -6.296875l-1.25 0l0 -0.78125l1.25 0l0 -2.625zm4.5164795 0l0.921875 0l0 2.625l1.4375 0l0 0.78125l-1.4375 0l0 6.296875l-0.921875 0l0 -6.296875l-1.25 0l0 -0.78125l1.25 0l0 -2.625zm9.672699 7.359375l0.78125 0.390625q-0.390625 0.75 -0.890625 1.203125q-0.484375 0.453125 -1.109375 0.703125q-0.609375 0.234375 -1.390625 0.234375q-1.734375 0 -2.71875 -1.140625q-0.96875 -1.140625 -0.96875 -2.5625q0 -1.359375 0.828125 -2.40625q1.046875 -1.34375 2.8125 -1.34375q1.8125 0 2.890625 1.375q0.765625 0.96875 0.78125 2.421875l-6.375 0q0.03125 1.234375 0.78125 2.03125q0.765625 0.78125 1.890625 0.78125q0.546875 0 1.046875 -0.1875q0.515625 -0.1875 0.875 -0.5q0.359375 -0.3125 0.765625 -1.0zm0 -1.90625q-0.171875 -0.734375 -0.53125 -1.171875q-0.34375 -0.4375 -0.921875 -0.703125q-0.5625 -0.265625 -1.1875 -0.265625q-1.046875 0 -1.796875 0.671875q-0.546875 0.484375 -0.828125 1.46875l5.265625 0zm2.3651123 -2.828125l0.921875 0l0 1.03125q0.421875 -0.609375 0.875 -0.90625q0.46875 -0.3125 0.96875 -0.3125q0.375 0 0.8125 0.25l-0.46875 0.765625q-0.296875 -0.125 -0.484375 -0.125q-0.453125 0 -0.890625 0.375q-0.421875 0.375 -0.640625 1.15625q-0.171875 0.609375 -0.171875 2.453125l0 2.390625l-0.921875 0l0 -7.078125zm12.105103 -2.5l4.46875 9.578125l-1.03125 0l-1.5 -3.15625l-4.125 0l-1.5 3.15625l-1.078125 0l4.53125 -9.578125l0.234375 0zm-0.125 2.03125l-1.640625 3.46875l3.28125 0l-1.640625 -3.46875zm6.062561 -2.03125l1.90625 0q1.640625 0 2.21875 0.140625q0.8125 0.203125 1.328125 0.84375q0.53125 0.625 0.53125 1.578125q0 0.953125 -0.515625 1.578125q-0.5 0.609375 -1.390625 0.828125q-0.65625 0.15625 -2.4375 0.15625l-0.6875 0l0 4.453125l-0.953125 0l0 -9.578125zm0.953125 0.9375l0 3.25l1.625 0.015625q0.984375 0 1.4375 -0.171875q0.453125 -0.1875 0.71875 -0.578125q0.265625 -0.40625 0.265625 -0.890625q0 -0.484375 -0.265625 -0.875q-0.265625 -0.40625 -0.6875 -0.578125q-0.421875 -0.171875 -1.390625 -0.171875l-1.703125 0zm6.809387 -0.9375l0.953125 0l0 9.578125l-0.953125 0l0 -9.578125z" fill-rule="nonzero"/><path fill="#000000" fill-opacity="0.0" d="m371.58792 109.73838l0 -60.188972" fill-rule="evenodd"/><path stroke="#000000" stroke-width="2.6666666666666665" stroke-miterlimit="400.0" stroke-linecap="butt" d="m371.58792 109.73838l0 -44.188972" fill-rule="evenodd"/><path fill="#000000" stroke="#000000" stroke-width="2.6666666666666665" stroke-linecap="butt" d="m375.99255 65.54941l-4.4046326 -12.101593l-4.404602 12.101593z" fill-rule="evenodd"/><path fill="#000000" fill-opacity="0.0" d="m366.61526 79.48727l127.653564 0l0 21.763779l-127.653564 0z" fill-rule="evenodd"/><path fill="#c82506" d="m383.98203 85.591034l6.078125 0l-5.125 9.8125l-0.78125 -0.390625l4.421875 -8.515625l-4.59375 0l0 -0.90625zm8.448944 8.140625q0.328125 0 0.5625 0.234375q0.234375 0.234375 0.234375 0.578125q0 0.328125 -0.234375 0.578125q-0.234375 0.234375 -0.5625 0.234375q-0.328125 0 -0.5625 -0.234375q-0.234375 -0.25 -0.234375 -0.578125q0 -0.34375 0.234375 -0.578125q0.234375 -0.234375 0.5625 -0.234375zm6.036194 -5.640625l0.921875 0l0 1.03125q0.421875 -0.609375 0.875 -0.90625q0.46875 -0.3125 0.96875 -0.3125q0.375 0 0.8125 0.25l-0.46875 0.765625q-0.296875 -0.125 -0.484375 -0.125q-0.453125 0 -0.890625 0.375q-0.421875 0.375 -0.640625 1.15625q-0.171875 0.609375 -0.171875 2.453125l0 2.390625l-0.921875 0l0 -7.078125zm10.305725 4.734375l0.78125 0.390625q-0.390625 0.75 -0.890625 1.203125q-0.484375 0.453125 -1.109375 0.703125q-0.609375 0.234375 -1.390625 0.234375q-1.734375 0 -2.71875 -1.140625q-0.96875 -1.140625 -0.96875 -2.5625q0 -1.359375 0.828125 -2.40625q1.046875 -1.34375 2.8125 -1.34375q1.8125 0 2.890625 1.375q0.765625 0.96875 0.78125 2.421875l-6.375 0q0.03125 1.234375 0.78125 2.03125q0.765625 0.78125 1.890625 0.78125q0.546875 0 1.046875 -0.1875q0.515625 -0.1875 0.875 -0.5q0.359375 -0.3125 0.765625 -1.0zm0 -1.90625q-0.171875 -0.734375 -0.53125 -1.171875q-0.34375 -0.4375 -0.921875 -0.703125q-0.5625 -0.265625 -1.1875 -0.265625q-1.046875 0 -1.796875 0.671875q-0.546875 0.484375 -0.828125 1.46875l5.265625 0zm2.7244873 -2.828125l0.90625 0l0 1.296875q0.53125 -0.734375 1.234375 -1.109375q0.703125 -0.375 1.578125 -0.375q1.5 0 2.578125 1.09375q1.078125 1.078125 1.078125 2.609375q0 1.5625 -1.0625 2.65625q-1.0625 1.09375 -2.578125 1.09375q-0.84375 0 -1.5625 -0.34375q-0.703125 -0.359375 -1.265625 -1.0625l0 3.8125l-0.90625 0l0 -9.671875zm3.640625 0.6875q-1.1875 0 -2.0 0.828125q-0.796875 0.828125 -0.796875 2.0625q0 0.8125 0.359375 1.453125q0.359375 0.640625 1.03125 1.015625q0.671875 0.375 1.421875 0.375q0.734375 0 1.375 -0.375q0.65625 -0.375 1.03125 -1.0625q0.390625 -0.6875 0.390625 -1.4375q0 -0.75 -0.390625 -1.421875q-0.375 -0.6875 -1.015625 -1.0625q-0.640625 -0.375 -1.40625 -0.375zm8.778992 -0.875q1.640625 0 2.71875 1.1875q0.96875 1.078125 0.96875 2.5625q0 1.484375 -1.03125 2.59375q-1.03125 1.109375 -2.65625 1.109375q-1.625 0 -2.65625 -1.109375q-1.03125 -1.109375 -1.03125 -2.59375q0 -1.46875 0.984375 -2.5625q1.078125 -1.1875 2.703125 -1.1875zm0 0.890625q-1.125 0 -1.9375 0.84375q-0.8125 0.84375 -0.8125 2.03125q0 0.765625 0.359375 1.4375q0.375 0.65625 1.0 1.015625q0.640625 0.359375 1.390625 0.359375q0.765625 0 1.390625 -0.359375q0.640625 -0.359375 1.0 -1.015625q0.375 -0.671875 0.375 -1.4375q0 -1.1875 -0.8125 -2.03125q-0.8125 -0.84375 -1.953125 -0.84375zm5.0395813 -0.703125l0.921875 0l0 1.03125q0.421875 -0.609375 0.875 -0.90625q0.46875 -0.3125 0.96875 -0.3125q0.375 0 0.8125 0.25l-0.46875 0.765625q-0.296875 -0.125 -0.484375 -0.125q-0.453125 0 -0.890625 0.375q-0.421875 0.375 -0.640625 1.15625q-0.171875 0.609375 -0.171875 2.453125l0 2.390625l-0.921875 0l0 -7.078125zm5.149475 -2.625l0.921875 0l0 2.625l1.4375 0l0 0.78125l-1.4375 0l0 6.296875l-0.921875 0l0 -6.296875l-1.25 0l0 -0.78125l1.25 0l0 -2.625zm13.362671 7.359375l0.78125 0.390625q-0.390625 0.75 -0.890625 1.203125q-0.484375 0.453125 -1.109375 0.703125q-0.609375 0.234375 -1.390625 0.234375q-1.734375 0 -2.71875 -1.140625q-0.96875 -1.140625 -0.96875 -2.5625q0 -1.359375 0.828125 -2.40625q1.046875 -1.34375 2.8125 -1.34375q1.8125 0 2.890625 1.375q0.765625 0.96875 0.78125 2.421875l-6.375 0q0.03125 1.234375 0.78125 2.03125q0.765625 0.78125 1.890625 0.78125q0.546875 0 1.046875 -0.1875q0.515625 -0.1875 0.875 -0.5q0.359375 -0.3125 0.765625 -1.0zm0 -1.90625q-0.171875 -0.734375 -0.53125 -1.171875q-0.34375 -0.4375 -0.921875 -0.703125q-0.5625 -0.265625 -1.1875 -0.265625q-1.046875 0 -1.796875 0.671875q-0.546875 0.484375 -0.828125 1.46875l5.265625 0zm2.0369873 -2.828125l0.96875 0l2.375 5.15625l2.34375 -5.15625l0.984375 0l-3.25 7.078125l-0.15625 0l-3.265625 -7.078125zm14.011444 4.734375l0.78125 0.390625q-0.390625 0.75 -0.890625 1.203125q-0.484375 0.453125 -1.109375 0.703125q-0.609375 0.234375 -1.390625 0.234375q-1.734375 0 -2.71875 -1.140625q-0.96875 -1.140625 -0.96875 -2.5625q0 -1.359375 0.828125 -2.40625q1.046875 -1.34375 2.8125 -1.34375q1.8125 0 2.890625 1.375q0.765625 0.96875 0.78125 2.421875l-6.375 0q0.03125 1.234375 0.78125 2.03125q0.765625 0.78125 1.890625 0.78125q0.546875 0 1.046875 -0.1875q0.515625 -0.1875 0.875 -0.5q0.359375 -0.3125 0.765625 -1.0zm0 -1.90625q-0.171875 -0.734375 -0.53125 -1.171875q-0.34375 -0.4375 -0.921875 -0.703125q-0.5625 -0.265625 -1.1875 -0.265625q-1.046875 0 -1.796875 0.671875q-0.546875 0.484375 -0.828125 1.46875l5.265625 0zm2.7088623 -2.828125l0.90625 0l0 1.265625q0.546875 -0.734375 1.203125 -1.09375q0.671875 -0.359375 1.453125 -0.359375q0.796875 0 1.40625 0.40625q0.625 0.40625 0.90625 1.09375q0.296875 0.671875 0.296875 2.125l0 3.640625l-0.90625 0l0 -3.375q0 -1.21875 -0.09375 -1.640625q-0.171875 -0.703125 -0.625 -1.046875q-0.4375 -0.359375 -1.15625 -0.359375q-0.828125 0 -1.484375 0.546875q-0.65625 0.546875 -0.859375 1.359375q-0.140625 0.515625 -0.140625 1.921875l0 2.59375l-0.90625 0l0 -7.078125zm8.925232 -2.625l0.921875 0l0 2.625l1.4375 0l0 0.78125l-1.4375 0l0 6.296875l-0.921875 0l0 -6.296875l-1.25 0l0 -0.78125l1.25 0l0 -2.625z" fill-rule="nonzero"/><path fill="#000000" fill-opacity="0.0" d="m126.72388 51.44808l108.8504 0l0 21.763775l-108.8504 0z" fill-rule="evenodd"/><path fill="#c82506" d="m146.38728 61.879967q0.96875 0.484375 1.390625 1.109375q0.421875 0.609375 0.421875 1.390625q0 1.109375 -0.734375 1.953125q-0.875 1.03125 -2.53125 1.03125q-1.578125 0 -2.40625 -0.90625q-0.8125 -0.90625 -0.8125 -2.0q0 -0.796875 0.421875 -1.4375q0.4375 -0.640625 1.4375 -1.140625q-0.703125 -0.359375 -1.0625 -0.90625q-0.34375 -0.546875 -0.34375 -1.15625q0 -0.625 0.375 -1.21875q0.375 -0.59375 1.03125 -0.9375q0.65625 -0.34375 1.421875 -0.34375q0.75 0 1.390625 0.34375q0.640625 0.34375 1.0 0.9375q0.359375 0.59375 0.359375 1.25q0 0.640625 -0.34375 1.15625q-0.328125 0.5 -1.015625 0.875zm-1.421875 -3.640625q-0.796875 0 -1.3125 0.46875q-0.515625 0.46875 -0.515625 1.109375q0 0.640625 0.546875 1.15625q0.5625 0.515625 1.3125 0.515625q0.46875 0 0.890625 -0.234375q0.421875 -0.234375 0.65625 -0.640625q0.25 -0.40625 0.25 -0.8125q0 -0.578125 -0.46875 -1.0625q-0.46875 -0.5 -1.359375 -0.5zm0.03125 4.125q-0.984375 0 -1.65625 0.640625q-0.671875 0.640625 -0.671875 1.484375q0 0.53125 0.28125 1.0q0.296875 0.46875 0.8125 0.734375q0.515625 0.25 1.1875 0.25q1.046875 0 1.65625 -0.625q0.625 -0.625 0.625 -1.453125q0 -0.796875 -0.65625 -1.40625q-0.640625 -0.625 -1.578125 -0.625zm5.667694 3.328125q0.328125 0 0.5625 0.234375q0.234375 0.234375 0.234375 0.578125q0 0.328125 -0.234375 0.578125q-0.234375 0.234375 -0.5625 0.234375q-0.328125 0 -0.5625 -0.234375q-0.234375 -0.25 -0.234375 -0.578125q0 -0.34375 0.234375 -0.578125q0.234375 -0.234375 0.5625 -0.234375zm6.379944 -5.640625l0.90625 0l0 1.265625q0.546875 -0.734375 1.203125 -1.09375q0.671875 -0.359375 1.453125 -0.359375q0.796875 0 1.40625 0.40625q0.625 0.40625 0.90625 1.09375q0.296875 0.671875 0.296875 2.125l0 3.640625l-0.90625 0l0 -3.375q0 -1.21875 -0.09375 -1.640625q-0.171875 -0.703125 -0.625 -1.046875q-0.4375 -0.359375 -1.15625 -0.359375q-0.828125 0 -1.484375 0.546875q-0.65625 0.546875 -0.859375 1.359375q-0.140625 0.515625 -0.140625 1.921875l0 2.59375l-0.90625 0l0 -7.078125zm11.472092 -0.1875q1.640625 0 2.71875 1.1875q0.96875 1.078125 0.96875 2.5625q0 1.484375 -1.03125 2.59375q-1.03125 1.109375 -2.65625 1.109375q-1.625 0 -2.65625 -1.109375q-1.03125 -1.109375 -1.03125 -2.59375q0 -1.46875 0.984375 -2.5625q1.078125 -1.1875 2.703125 -1.1875zm0 0.890625q-1.125 0 -1.9375 0.84375q-0.8125 0.84375 -0.8125 2.03125q0 0.765625 0.359375 1.4375q0.375 0.65625 1.0 1.015625q0.640625 0.359375 1.390625 0.359375q0.765625 0 1.390625 -0.359375q0.640625 -0.359375 1.0 -1.015625q0.375 -0.671875 0.375 -1.4375q0 -1.1875 -0.8125 -2.03125q-0.8125 -0.84375 -1.953125 -0.84375zm6.180191 -3.328125l0.921875 0l0 2.625l1.4375 0l0 0.78125l-1.4375 0l0 6.296875l-0.921875 0l0 -6.296875l-1.25 0l0 -0.78125l1.25 0l0 -2.625zm4.032089 -0.296875q0.3125 0 0.53125 0.234375q0.234375 0.21875 0.234375 0.53125q0 0.296875 -0.234375 0.515625q-0.21875 0.21875 -0.53125 0.21875q-0.296875 0 -0.53125 -0.21875q-0.21875 -0.21875 -0.21875 -0.515625q0 -0.3125 0.21875 -0.53125q0.234375 -0.234375 0.53125 -0.234375zm-0.453125 2.921875l0.921875 0l0 7.078125l-0.921875 0l0 -7.078125zm5.730728 -2.734375l0 0.890625q-0.515625 -0.21875 -0.859375 -0.21875q-0.265625 0 -0.453125 0.109375q-0.171875 0.109375 -0.21875 0.25q-0.046875 0.140625 -0.046875 0.75l0 0.953125l1.484375 0l0 0.78125l-1.484375 0l0 6.296875l-0.921875 0l0 -6.296875l-0.921875 0l0 -0.78125l0.921875 0l0 -1.109375q0 -0.765625 0.140625 -1.078125q0.140625 -0.328125 0.46875 -0.53125q0.34375 -0.203125 0.828125 -0.203125q0.4375 0 1.0625 0.1875zm0.4970703 2.734375l0.96875 0l2.4375 5.453125l2.359375 -5.453125l0.96875 0l-4.21875 9.671875l-0.96875 0l1.359375 -3.125l-2.90625 -6.546875zm11.476242 0l0.921875 0l0 3.296875q0 1.21875 0.140625 1.671875q0.1875 0.65625 0.734375 1.03125q0.546875 0.375 1.3125 0.375q0.765625 0 1.296875 -0.359375q0.53125 -0.375 0.734375 -0.96875q0.125 -0.421875 0.125 -1.75l0 -3.296875l0.9375 0l0 3.46875q0 1.46875 -0.34375 2.21875q-0.34375 0.734375 -1.03125 1.15625q-0.6875 0.421875 -1.71875 0.421875q-1.03125 0 -1.734375 -0.421875q-0.6875 -0.421875 -1.03125 -1.171875q-0.34375 -0.75 -0.34375 -2.265625l0 -3.40625zm11.78981 0.765625l-0.59375 0.609375q-0.71875 -0.703125 -1.421875 -0.703125q-0.4375 0 -0.765625 0.296875q-0.3125 0.28125 -0.3125 0.671875q0 0.34375 0.265625 0.65625q0.265625 0.328125 1.09375 0.75q1.015625 0.53125 1.375 1.015625q0.359375 0.5 0.359375 1.109375q0 0.875 -0.609375 1.484375q-0.609375 0.609375 -1.53125 0.609375q-0.609375 0 -1.171875 -0.265625q-0.546875 -0.265625 -0.921875 -0.734375l0.578125 -0.65625q0.703125 0.78125 1.484375 0.78125q0.546875 0 0.921875 -0.34375q0.390625 -0.359375 0.390625 -0.828125q0 -0.390625 -0.25 -0.703125q-0.265625 -0.296875 -1.15625 -0.75q-0.953125 -0.5 -1.296875 -0.96875q-0.34375 -0.484375 -0.34375 -1.109375q0 -0.8125 0.546875 -1.34375q0.546875 -0.53125 1.390625 -0.53125q0.96875 0 1.96875 0.953125zm7.564392 3.96875l0.78125 0.390625q-0.390625 0.75 -0.890625 1.203125q-0.484375 0.453125 -1.109375 0.703125q-0.609375 0.234375 -1.390625 0.234375q-1.734375 0 -2.71875 -1.140625q-0.96875 -1.140625 -0.96875 -2.5625q0 -1.359375 0.828125 -2.40625q1.046875 -1.34375 2.8125 -1.34375q1.8125 0 2.890625 1.375q0.765625 0.96875 0.78125 2.421875l-6.375 0q0.03125 1.234375 0.78125 2.03125q0.765625 0.78125 1.890625 0.78125q0.546875 0 1.046875 -0.1875q0.515625 -0.1875 0.875 -0.5q0.359375 -0.3125 0.765625 -1.0zm0 -1.90625q-0.171875 -0.734375 -0.53125 -1.171875q-0.34375 -0.4375 -0.921875 -0.703125q-0.5625 -0.265625 -1.1875 -0.265625q-1.046875 0 -1.796875 0.671875q-0.546875 0.484375 -0.828125 1.46875l5.265625 0zm2.3651123 -2.828125l0.921875 0l0 1.03125q0.421875 -0.609375 0.875 -0.90625q0.46875 -0.3125 0.96875 -0.3125q0.375 0 0.8125 0.25l-0.46875 0.765625q-0.296875 -0.125 -0.484375 -0.125q-0.453125 0 -0.890625 0.375q-0.421875 0.375 -0.640625 1.15625q-0.171875 0.609375 -0.171875 2.453125l0 2.390625l-0.921875 0l0 -7.078125z" fill-rule="nonzero"/><path fill="#000000" fill-opacity="0.0" d="m213.59431 25.674541l-150.14174 55.33858" fill-rule="evenodd"/><path stroke="#000000" stroke-width="2.6666666666666665" stroke-miterlimit="400.0" stroke-linecap="butt" d="m213.5943 25.674541l-135.12898 49.80525" fill-rule="evenodd"/><path fill="#000000" stroke="#000000" stroke-width="2.6666666666666665" stroke-linecap="butt" d="m76.942055 71.346954l-9.831612 8.31797l12.878136 -0.05229187z" fill-rule="evenodd"/><path fill="#000000" fill-opacity="0.0" d="m315.24786 46.902885l0 61.291344" fill-rule="evenodd"/><path stroke="#000000" stroke-width="2.6666666666666665" stroke-miterlimit="400.0" stroke-linecap="butt" d="m315.24783 46.902885l0 45.291344" fill-rule="evenodd"/><path fill="#000000" stroke="#000000" stroke-width="2.6666666666666665" stroke-linecap="butt" d="m310.84323 92.19423l4.404602 12.101593l4.4046326 -12.101593z" fill-rule="evenodd"/></g></svg>